<?xml version="1.0" standalone="no"?>
<!DOCTYPE svg PUBLIC "-//W3C//DTD SVG 20010904//EN"
 "http://www.w3.org/TR/2001/REC-SVG-20010904/DTD/svg10.dtd">
<svg version="1.0" xmlns="http://www.w3.org/2000/svg"
 width="2000.000000pt" height="2000.000000pt" viewBox="0 0 2000.000000 2000.000000"
 preserveAspectRatio="xMidYMid meet">

<g transform="translate(0.000000,2000.000000) scale(0.100000,-0.100000)"
fill="#000000" stroke="none">
<path d="M5220 19996 c0 -3 27 -63 59 -134 l59 -130 -165 -70 -164 -70 43 -5
c24 -4 99 -11 168 -17 69 -6 130 -13 136 -15 7 -2 4 -57 -12 -176 -13 -96 -22
-174 -21 -175 1 -1 24 30 50 69 26 38 41 65 33 58 -29 -24 -41 41 -19 99 4 8
5 18 5 23 -1 4 1 6 5 6 22 -4 33 2 27 14 -6 9 -4 9 8 -1 14 -11 20 -7 47 25
17 21 31 41 31 45 0 4 13 5 28 2 23 -5 35 0 60 25 18 19 29 38 25 46 -3 8 0
15 6 15 6 0 11 -13 11 -28 0 -15 18 -66 40 -111 22 -46 39 -86 36 -88 -3 -3
-20 7 -39 21 -39 30 -56 34 -36 9 13 -16 11 -16 -15 1 -16 10 -26 14 -22 8 8
-13 207 -165 210 -161 2 2 -30 74 -70 159 -40 85 -73 157 -73 160 -1 3 71 34
159 70 88 36 160 68 160 71 0 6 -240 29 -306 29 -28 0 -44 -5 -48 -15 -3 -8
-13 -15 -21 -15 -14 0 -15 10 -9 68 5 59 4 70 -10 75 -10 4 -15 3 -12 -2 3 -5
-1 -12 -10 -15 -8 -3 -12 -2 -9 4 3 6 4 10 1 10 -2 0 -21 -22 -41 -50 -36 -49
-37 -49 -61 -34 -23 16 -24 15 -17 -1 4 -13 3 -16 -5 -11 -7 4 -15 0 -18 -9
-4 -9 -13 -14 -20 -11 -8 3 -14 1 -14 -5 0 -6 -5 -7 -11 -3 -13 8 -90 167 -84
173 2 2 22 -11 43 -28 45 -35 54 -38 45 -15 -5 15 -3 15 20 -1 53 -34 25 -6
-52 54 -50 38 -89 61 -105 61 -14 0 -26 -2 -26 -4z m181 -454 c-1 -20 -7 -41
-12 -47 -7 -7 -9 5 -5 35 2 25 5 49 5 54 1 5 4 6 8 2 4 -4 6 -24 4 -44z"/>
<path d="M5639 19988 c-3 -66 -6 -208 -4 -208 2 0 8 37 14 83 7 45 14 94 17
110 4 20 2 27 -10 27 -9 0 -16 -6 -17 -12z"/>
<path d="M13040 19996 c0 -2 27 -61 60 -131 33 -70 60 -128 60 -130 0 -5 -308
-135 -322 -136 -35 -3 72 -18 205 -30 l149 -12 -7 -61 c-4 -34 -15 -114 -24
-178 -9 -65 -14 -114 -11 -110 57 70 83 136 57 145 -5 1 -6 23 -2 49 6 36 12
48 33 58 15 6 28 10 29 8 2 -5 50 49 62 69 8 15 13 16 30 6 16 -10 22 -10 28
0 4 6 17 19 27 27 18 13 19 13 11 0 -6 -12 -5 -13 6 -2 7 6 17 12 22 12 10 0
90 -170 83 -177 -3 -3 -20 7 -38 22 -19 16 -34 23 -36 16 -2 -6 -8 -9 -13 -5
-5 3 -9 3 -9 0 0 -8 190 -159 194 -155 2 2 -30 75 -70 162 l-73 158 52 23 c29
13 100 43 159 67 59 24 108 47 108 50 0 6 -233 29 -299 29 l-44 0 6 68 c4 37
10 88 13 115 6 39 4 47 -10 47 -14 0 -16 -16 -16 -130 0 -124 -1 -130 -20
-130 -19 0 -20 4 -15 53 4 28 8 62 11 75 4 23 -10 30 -21 11 -4 -6 -13 -8 -21
-5 -8 3 -28 -15 -50 -45 -29 -39 -39 -47 -50 -38 -10 8 -21 6 -47 -10 -19 -12
-38 -21 -43 -21 -5 0 -29 38 -52 85 -23 47 -39 85 -36 85 3 0 25 -13 49 -30
46 -32 61 -37 49 -18 -5 8 -2 9 9 5 29 -11 19 -1 -56 57 -47 36 -83 56 -100
56 -15 0 -27 -2 -27 -4z m423 -399 c-3 -5 -9 -3 -14 4 -4 7 -5 17 -2 22 3 5 9
3 14 -4 4 -7 5 -17 2 -22z m-234 -24 c0 -10 -4 -36 -8 -58 -9 -40 -9 -39 -10
18 0 32 3 57 9 57 6 0 10 -8 9 -17z"/>
<path d="M6475 17293 c-21 -32 -31 -52 -22 -44 15 12 17 11 18 -10 2 -73 -3
-203 -8 -217 -4 -10 -2 -14 3 -9 8 7 54 327 49 335 -1 1 -19 -24 -40 -55z"/>
<path d="M14295 17293 c-21 -32 -32 -52 -23 -46 8 7 17 11 19 9 4 -5 3 -78 -4
-221 -2 -52 -7 -70 -17 -70 -14 0 -14 3 -7 114 1 13 -4 26 -12 29 -9 3 -11 0
-6 -8 6 -10 4 -12 -8 -7 -10 4 -16 2 -14 -6 1 -7 -3 -11 -10 -10 -6 2 -26 -14
-42 -35 -27 -32 -34 -35 -51 -25 -16 11 -21 9 -35 -9 -8 -13 -15 -18 -15 -13
0 6 -6 2 -13 -7 -18 -23 -30 -13 -66 60 -59 117 -59 120 1 76 32 -24 49 -32
45 -22 -4 13 -2 16 11 11 11 -4 14 -3 7 4 -17 17 -204 163 -208 163 -3 0 29
-73 70 -161 41 -89 71 -165 66 -169 -4 -4 -80 -36 -167 -71 -87 -35 -153 -65
-145 -66 8 -1 88 -10 179 -18 90 -9 166 -17 167 -19 2 -2 -7 -83 -20 -180 -13
-97 -22 -176 -22 -176 1 0 24 33 50 73 29 43 39 64 25 52 l-23 -20 12 23 c8
16 9 22 1 22 -13 0 -11 65 2 93 5 9 15 17 23 17 8 0 15 5 15 11 0 5 5 7 11 4
5 -4 28 12 49 35 23 25 43 39 50 35 12 -7 55 10 78 32 6 6 12 22 12 34 0 31
12 16 16 -20 2 -17 19 -62 39 -101 19 -38 35 -75 35 -81 0 -6 -15 0 -34 15
-41 31 -46 32 -46 8 0 -11 34 -44 87 -84 48 -37 89 -66 90 -64 2 2 -28 70 -67
152 -38 82 -70 154 -70 160 0 6 69 39 153 74 83 34 156 66 160 70 4 4 -71 14
-168 22 -96 8 -177 17 -179 19 -3 2 6 81 19 174 13 93 22 171 21 172 -2 2 -20
-23 -41 -54z m-239 -514 c-3 -17 -6 -40 -6 -50 0 -11 -4 -19 -8 -19 -5 0 -8
19 -6 43 3 58 3 57 15 57 8 0 9 -11 5 -31z"/>
<path d="M6034 17248 c8 -18 42 -91 75 -162 34 -71 60 -131 58 -132 -2 -2 -75
-33 -162 -70 -88 -36 -161 -67 -163 -68 -1 -2 78 -10 175 -20 97 -9 178 -18
180 -20 3 -3 -34 -296 -43 -336 -5 -21 0 -18 23 15 50 69 69 101 52 88 -14
-11 -15 -2 -16 80 0 55 3 82 8 67 4 -14 7 -19 8 -12 1 7 5 11 10 7 5 -3 12 -1
16 5 4 6 11 8 16 5 5 -4 9 -1 9 5 0 6 4 9 9 6 5 -3 19 10 32 29 26 37 38 42
57 23 8 -8 12 -8 12 -1 0 6 17 20 39 31 l38 20 41 -91 c23 -50 41 -92 39 -94
-2 -1 -19 8 -37 22 -39 29 -47 31 -47 10 0 -12 165 -155 180 -155 3 0 -28 73
-69 161 -41 89 -73 163 -72 164 2 1 70 30 153 65 82 34 156 65 163 69 8 5 -57
14 -144 20 -88 7 -171 14 -186 16 -16 1 -25 -2 -21 -7 5 -10 -14 -28 -30 -28
-4 0 -5 35 -1 78 l7 77 -21 -18 c-11 -11 -25 -16 -31 -13 -5 4 -22 -12 -38
-34 -28 -40 -46 -49 -58 -29 -5 6 -11 4 -19 -7 -8 -11 -18 -14 -26 -9 -8 5
-11 4 -7 -2 9 -15 -30 -24 -41 -9 -12 13 -82 153 -82 161 0 3 21 -10 47 -30
44 -34 62 -34 50 -1 -3 7 -43 42 -89 78 -112 86 -110 85 -94 46z m436 -413 c0
-8 -4 -15 -10 -15 -5 0 -10 7 -10 15 0 8 5 15 10 15 6 0 10 -7 10 -15z m-231
-42 c-1 -10 -5 -31 -8 -48 -7 -28 -8 -26 -12 18 -3 33 -1 47 8 47 7 0 12 -8
12 -17z"/>
<path d="M1451 17092 c-8 -67 -12 -125 -9 -127 3 -3 9 27 13 67 6 56 10 67 15
48 8 -24 8 -24 8 5 0 17 -3 53 -7 80 -6 46 -8 41 -20 -73z"/>
<path d="M17107 17131 c-4 -47 -4 -87 -2 -90 3 -2 5 11 6 30 0 28 2 30 9 14 7
-17 9 -16 9 10 0 17 -4 50 -8 75 -6 42 -7 40 -14 -39z"/>
<path d="M9260 16985 c-12 -108 -21 -197 -18 -200 2 -3 13 65 23 150 10 85 21
155 25 155 4 0 13 -52 20 -115 7 -64 15 -114 17 -111 7 7 -29 316 -37 316 -3
0 -17 -88 -30 -195z"/>
<path d="M17133 17025 c0 -22 2 -30 4 -17 2 12 2 30 0 40 -3 9 -5 -1 -4 -23z"/>
<path d="M1483 17015 c0 -22 2 -30 4 -17 2 12 2 30 0 40 -3 9 -5 -1 -4 -23z"/>
<path d="M17092 16990 c0 -19 2 -27 5 -17 2 9 2 25 0 35 -3 9 -5 1 -5 -18z"/>
<path d="M1493 16935 c0 -22 2 -30 4 -17 2 12 2 30 0 40 -3 9 -5 -1 -4 -23z"/>
<path d="M17142 16940 c0 -19 2 -27 5 -17 2 9 2 25 0 35 -3 9 -5 1 -5 -18z"/>
<path d="M1432 16910 c0 -19 2 -27 5 -17 2 9 2 25 0 35 -3 9 -5 1 -5 -18z"/>
<path d="M17082 16905 c0 -16 2 -22 5 -12 2 9 2 23 0 30 -3 6 -5 -1 -5 -18z"/>
<path d="M1503 16855 c0 -22 2 -30 4 -17 2 12 2 30 0 40 -3 9 -5 -1 -4 -23z"/>
<path d="M17152 16860 c0 -19 2 -27 5 -17 2 9 2 25 0 35 -3 9 -5 1 -5 -18z"/>
<path d="M1422 16830 c0 -19 2 -27 5 -17 2 9 2 25 0 35 -3 9 -5 1 -5 -18z"/>
<path d="M17073 16825 c0 -22 2 -30 4 -17 2 12 2 30 0 40 -3 9 -5 -1 -4 -23z"/>
<path d="M9333 16815 c0 -22 2 -30 4 -17 2 12 2 30 0 40 -3 9 -5 -1 -4 -23z"/>
<path d="M1513 16775 c0 -22 2 -30 4 -17 2 12 2 30 0 40 -3 9 -5 -1 -4 -23z"/>
<path d="M17162 16780 c0 -19 2 -27 5 -17 2 9 2 25 0 35 -3 9 -5 1 -5 -18z"/>
<path d="M1412 16745 c0 -16 2 -22 5 -12 2 9 2 23 0 30 -3 6 -5 -1 -5 -18z"/>
<path d="M9232 16740 c0 -19 2 -27 5 -17 2 9 2 25 0 35 -3 9 -5 1 -5 -18z"/>
<path d="M9343 16735 c0 -22 2 -30 4 -17 2 12 2 30 0 40 -3 9 -5 -1 -4 -23z"/>
<path d="M17062 16740 c0 -19 2 -27 5 -17 2 9 2 25 0 35 -3 9 -5 1 -5 -18z"/>
<path d="M1522 16700 c0 -19 2 -27 5 -17 2 9 2 25 0 35 -3 9 -5 1 -5 -18z"/>
<path d="M17172 16700 c0 -19 2 -27 5 -17 2 9 2 25 0 35 -3 9 -5 1 -5 -18z"/>
<path d="M1402 16670 c0 -19 2 -27 5 -17 2 9 2 25 0 35 -3 9 -5 1 -5 -18z"/>
<path d="M9223 16655 c0 -22 2 -30 4 -17 2 12 2 30 0 40 -3 9 -5 -1 -4 -23z"/>
<path d="M9353 16655 c0 -22 2 -30 4 -17 2 12 2 30 0 40 -3 9 -5 -1 -4 -23z"/>
<path d="M17052 16660 c0 -19 2 -27 5 -17 2 9 2 25 0 35 -3 9 -5 1 -5 -18z"/>
<path d="M1532 16628 c-4 -55 3 -58 74 -30 35 14 62 27 60 29 -2 2 -27 -5 -55
-17 -67 -26 -69 -26 -74 13 -3 27 -4 28 -5 5z"/>
<path d="M17182 16628 c-4 -55 3 -58 74 -30 35 14 62 27 60 29 -2 2 -27 -5
-55 -17 -67 -26 -69 -26 -74 13 -3 27 -4 28 -5 5z"/>
<path d="M1280 16620 c9 -5 39 -18 68 -29 l52 -21 -1 28 c-1 17 -3 20 -6 10
-6 -23 -11 -22 -68 2 -48 21 -71 26 -45 10z"/>
<path d="M9435 16611 c-22 -11 -35 -19 -30 -19 14 -1 93 36 80 37 -5 0 -28 -8
-50 -18z"/>
<path d="M16960 16608 c89 -40 90 -40 90 -15 0 17 -2 19 -9 8 -8 -12 -17 -11
-59 7 -28 12 -54 22 -59 21 -4 0 12 -10 37 -21z"/>
<path d="M9130 16610 c8 -5 20 -10 25 -10 6 0 3 5 -5 10 -8 5 -19 10 -25 10
-5 0 -3 -5 5 -10z"/>
<path d="M9203 16596 c-10 -11 -9 -15 2 -20 10 -4 15 1 15 14 0 23 -1 24 -17
6z"/>
<path d="M9360 16592 c0 -15 4 -20 16 -15 9 3 12 9 7 12 -4 3 -11 10 -15 15
-5 5 -8 0 -8 -12z"/>
<path d="M9000 16551 c19 -17 56 -45 82 -63 26 -18 48 -36 48 -40 0 -3 -22
-23 -50 -43 -27 -20 -50 -39 -50 -42 0 -5 24 12 97 68 l23 17 -58 43 c-31 23
-73 54 -92 67 l-35 24 35 -31z"/>
<path d="M16800 16576 c0 -2 8 -10 18 -17 15 -13 16 -12 3 4 -13 16 -21 21
-21 13z"/>
<path d="M1681 16503 l-74 -56 24 -19 c42 -33 65 -41 29 -10 -19 16 -33 32
-30 34 3 2 33 26 68 53 54 42 69 56 60 55 -2 0 -36 -26 -77 -57z"/>
<path d="M9503 16503 l-73 -55 43 -32 c67 -51 107 -78 107 -73 0 3 -29 26 -65
52 -36 25 -65 49 -65 53 0 4 12 15 28 25 29 17 111 86 102 86 -3 0 -38 -25
-77 -56z"/>
<path d="M17333 16504 c-40 -30 -73 -56 -73 -58 0 -1 21 -17 48 -35 l47 -33
-40 35 c-22 19 -38 37 -35 39 3 3 33 26 68 53 54 42 69 56 60 55 -2 0 -36 -25
-75 -56z"/>
<path d="M1203 16532 c10 -11 36 -33 58 -48 45 -31 47 -39 17 -66 -20 -17 -19
-17 10 2 17 12 32 24 32 28 -1 4 -31 29 -68 56 -37 27 -59 40 -49 28z"/>
<path d="M16843 16542 c4 -5 29 -27 57 -48 44 -34 64 -63 43 -64 -5 0 -24 -14
-43 -31 -32 -29 -31 -28 15 4 27 19 50 39 52 43 1 5 -28 31 -64 58 -36 27 -63
44 -60 38z"/>
<path d="M341 16212 c-52 -119 -132 -302 -177 -406 -46 -105 -82 -191 -80
-193 1 -2 11 15 21 37 10 22 21 40 25 40 14 0 -9 -76 -50 -171 l-40 -92 0
-632 0 -632 202 -169 c258 -215 330 -279 358 -316 25 -33 17 -31 -45 15 l-40
30 35 -35 c19 -18 136 -119 260 -223 124 -104 265 -223 315 -264 49 -42 85
-69 80 -61 -10 16 -382 523 -425 580 -15 19 -92 123 -170 230 -161 220 -172
233 -139 170 13 -25 26 -47 29 -50 3 -3 14 -18 24 -35 17 -26 14 -25 -21 10
-39 38 -299 383 -309 409 -3 8 29 24 93 46 54 18 104 38 111 43 10 8 11 5 3
-17 -6 -14 -9 -26 -7 -26 4 0 456 164 841 304 171 63 363 133 428 156 64 24
116 44 115 45 -2 1 -34 -2 -73 -7 -38 -5 -333 -38 -655 -74 -843 -93 -803 -88
-750 -94 53 -6 56 -21 4 -26 -20 -2 -70 -8 -112 -14 -41 -6 -77 -8 -79 -6 -4
3 46 295 68 396 5 25 11 63 14 84 3 22 10 44 16 50 9 8 10 4 7 -16 -3 -15 -1
-33 3 -40 6 -9 8 -7 8 7 0 11 32 189 70 395 92 498 140 764 138 767 -1 1 -45
-96 -96 -215z m-40 -344 c-22 -123 -42 -235 -45 -249 -3 -13 -7 -37 -10 -54
-9 -68 -19 -105 -27 -105 -5 0 -9 8 -9 19 0 10 -7 38 -16 62 -8 24 -17 64 -20
88 -2 24 -7 47 -10 52 -5 9 10 47 108 277 34 78 63 140 65 139 2 -2 -14 -105
-36 -229z m1139 -950 c-35 -14 -596 -216 -825 -297 l-190 -67 -7 30 c-32 135
-40 173 -41 189 -1 9 -6 17 -11 17 -29 0 15 19 54 23 25 3 106 13 180 22 417
52 781 93 820 93 40 1 42 0 20 -10z m-855 -1008 c-3 -5 -2 -10 3 -10 8 0 113
-139 337 -445 33 -44 50 -73 40 -65 -68 52 -208 172 -252 216 -29 28 -53 49
-53 46 0 -2 -7 1 -15 8 -9 7 -14 19 -11 27 3 7 1 13 -5 13 -5 0 -7 12 -4 27 2
15 -2 37 -9 48 -8 12 -15 35 -17 51 -2 16 -8 35 -13 42 -14 20 -18 52 -5 52 5
0 7 -4 4 -10z"/>
<path d="M15991 16211 c-52 -119 -132 -301 -177 -405 -46 -105 -82 -191 -80
-193 2 -2 13 16 24 41 12 24 27 48 33 52 8 5 9 3 4 -7 -5 -7 -10 -23 -11 -35
-1 -12 -22 -66 -46 -120 l-43 -99 -3 -641 -2 -640 267 -225 c147 -123 276
-232 286 -242 28 -28 9 -40 -26 -16 -18 12 -10 2 17 -22 97 -87 621 -527 624
-524 3 3 -51 77 -373 510 -61 83 -166 225 -234 318 -122 164 -154 204 -108
130 22 -35 40 -83 31 -83 -5 0 -324 427 -329 443 -4 8 23 23 83 45 49 18 94
32 101 32 6 0 11 5 11 10 0 6 6 5 14 -2 11 -11 11 -15 -3 -25 -9 -7 -13 -13
-9 -13 7 0 402 142 858 310 162 59 348 127 413 150 64 24 116 44 115 45 -2 1
-34 -2 -73 -7 -38 -5 -333 -38 -655 -73 -659 -73 -811 -92 -758 -94 20 0 40
-6 43 -12 4 -6 13 -8 21 -5 7 3 16 1 19 -5 4 -5 11 -6 17 -3 5 4 25 8 43 10
19 1 51 5 72 8 119 17 906 106 930 105 l28 0 -25 -11 c-82 -33 -951 -343 -992
-353 -25 -6 -28 -5 -28 19 0 14 -4 26 -8 26 -5 0 -9 18 -10 41 -1 22 -7 49
-13 60 -6 11 -8 27 -5 34 3 8 1 17 -5 20 -5 4 -8 14 -7 22 4 21 -30 22 -156 6
-55 -7 -101 -11 -103 -9 -4 3 24 166 70 414 13 67 29 128 36 135 11 10 11 8 3
-9 -9 -16 -8 -26 3 -40 14 -18 14 -18 16 6 1 39 69 427 169 974 16 88 28 161
27 162 -1 1 -44 -95 -96 -215z m-57 -439 c-32 -176 -62 -318 -66 -316 -4 3 -8
16 -8 30 0 14 -5 34 -10 45 -9 17 -19 69 -23 122 -1 9 -5 17 -10 17 -11 0 -2
41 22 95 10 22 47 106 82 187 35 81 65 145 67 144 2 -2 -23 -148 -54 -324z
m306 -1861 c0 -5 6 -16 13 -23 15 -16 54 -68 227 -303 73 -99 138 -187 144
-195 14 -19 -68 47 -222 177 -66 55 -118 104 -115 107 4 3 1 6 -5 6 -7 0 -11
3 -10 8 5 16 -12 73 -20 68 -5 -3 -9 1 -9 8 0 8 6 12 12 10 14 -6 12 20 -2 56
-6 14 -8 30 -5 35 3 6 -2 4 -11 -4 -11 -9 -17 -10 -17 -2 0 21 2 26 11 24 16
-5 9 16 -8 26 -17 10 -17 10 0 11 9 0 17 -4 17 -9z"/>
<path d="M15826 15703 c-6 -14 -5 -15 5 -6 7 7 10 15 7 18 -3 3 -9 -2 -12 -12z"/>
<path d="M8200 16298 c-29 -68 -92 -214 -141 -325 -107 -244 -122 -284 -108
-298 7 -7 8 -4 4 10 -5 14 -4 16 2 7 8 -10 13 -10 23 4 8 9 15 22 16 29 1 8
27 71 59 142 31 70 67 153 80 183 36 81 37 86 -41 -340 -41 -228 -54 -285 -54
-233 0 11 -3 23 -7 27 -5 4 -8 11 -9 14 -5 49 -18 103 -25 108 -5 3 -7 10 -4
15 4 5 3 18 0 30 -9 27 -30 10 -45 -37 -7 -19 -54 -132 -106 -252 -52 -119
-123 -281 -156 -359 -34 -79 -65 -143 -69 -143 -13 0 -536 443 -581 493 -51
55 -33 58 30 3 12 -11 22 -17 22 -13 0 3 -29 30 -64 59 -35 29 -192 161 -347
292 -156 132 -295 249 -309 260 -13 12 -19 14 -13 6 129 -177 437 -596 533
-725 69 -93 136 -185 149 -203 12 -18 27 -29 33 -26 7 4 8 2 4 -4 -6 -10 91
-151 127 -187 13 -12 -18 39 -47 80 -39 53 -68 105 -59 105 5 0 35 -35 68 -77
86 -113 200 -266 208 -280 8 -12 -70 -46 -146 -62 l-42 -10 30 26 c21 18 24
23 10 18 -365 -129 -1418 -515 -1424 -521 -4 -4 8 -4 24 -1 17 4 244 29 505
57 642 69 1046 118 982 119 -35 1 -51 5 -47 12 4 6 9 8 12 5 3 -3 14 -1 24 4
10 6 49 13 87 16 l70 6 -24 -128 c-43 -233 -56 -294 -65 -294 -12 0 -11 11 7
113 8 49 14 93 12 99 -2 5 -34 -161 -72 -369 -83 -462 -186 -1056 -183 -1060
2 -1 29 60 61 135 33 75 102 234 154 352 119 272 126 291 110 302 -9 5 -7 8 7
8 18 1 18 2 4 10 -15 9 -8 31 61 192 116 275 230 532 238 540 4 3 108 -79 232
-183 124 -105 259 -218 300 -252 80 -65 126 -114 117 -124 -3 -3 -23 7 -44 22
l-38 27 32 -28 c31 -29 203 -175 490 -416 84 -71 155 -133 158 -138 3 -6 10
-10 15 -10 5 0 -24 44 -64 98 -40 53 -211 284 -379 512 -169 228 -316 426
-328 440 -31 37 -12 4 41 -70 61 -85 63 -89 46 -86 -14 2 -51 43 -86 96 -8 13
-31 44 -50 69 -83 108 -202 273 -198 275 6 5 123 47 170 61 51 15 63 3 23 -23
l-20 -13 20 6 c35 12 594 214 800 290 110 41 283 104 385 140 102 37 187 69
190 72 7 7 -39 3 -715 -73 -620 -69 -798 -91 -749 -93 37 -1 69 -23 61 -42 -4
-10 -6 -9 -6 3 -1 14 -8 17 -33 13 -89 -13 -193 -23 -199 -20 -3 3 0 39 8 82
27 149 32 179 53 292 11 63 19 120 16 128 -3 7 3 17 14 23 15 8 18 7 16 -7 -7
-34 -16 -148 -11 -138 10 23 226 1247 220 1253 -1 1 -26 -53 -55 -120z m-1461
-687 l126 -110 3 -48 c5 -70 6 -75 26 -113 24 -45 12 -33 -61 65 -148 198
-232 315 -227 315 3 0 63 -49 133 -109z m352 -568 c13 -16 12 -17 -3 -4 -10 7
-18 15 -18 17 0 8 8 3 21 -13z m2164 -127 c-16 -7 -140 -52 -275 -101 -135
-48 -349 -125 -477 -171 -128 -46 -238 -84 -245 -83 -10 0 -10 2 0 6 6 2 12
14 11 26 0 21 -1 21 -9 2 -10 -26 -15 -15 -39 102 -10 50 -22 97 -26 102 -3 6
-1 11 6 11 7 0 89 9 183 21 498 60 816 97 856 97 l45 1 -30 -13z m-2169 -387
c-14 -9 -15 -13 -5 -19 10 -7 10 -12 -2 -26 -8 -10 -9 -15 -2 -11 15 9 31 -46
35 -116 3 -41 6 -47 22 -43 10 3 15 1 10 -3 -10 -9 -89 -20 -658 -87 -209 -24
-381 -43 -383 -41 -4 5 69 32 550 203 207 74 384 134 392 134 7 0 17 5 20 10
3 6 14 10 23 10 15 -1 15 -2 -2 -11z m1360 -676 c-3 -7 -1 -12 4 -10 8 2 350
-449 350 -461 0 -3 -8 2 -17 10 -10 8 -63 53 -118 99 -55 46 -105 88 -111 94
-6 5 -23 19 -38 30 -15 11 -34 35 -42 54 -14 33 -15 33 -28 15 -11 -15 -12
-22 -3 -34 10 -13 10 -13 -5 -2 -15 12 -16 16 -3 36 12 19 13 32 4 79 -7 31
-16 54 -21 51 -6 -4 -5 3 1 15 7 11 8 21 3 21 -5 0 -9 6 -9 13 0 6 -4 21 -8
32 -7 18 -5 17 19 -5 14 -13 24 -30 22 -37z m-1076 26 c0 -11 -4 -18 -10 -14
-5 3 -7 12 -3 20 7 21 13 19 13 -6z m-20 -322 c0 -5 -4 -5 -10 -2 -5 3 -10 14
-10 23 0 15 2 15 10 2 5 -8 10 -19 10 -23z m-17 -32 c-7 -21 -13 -19 -13 6 0
11 4 18 10 14 5 -3 7 -12 3 -20z m18 -39 c8 5 9 3 5 -5 -5 -7 -14 -10 -22 -7
-8 3 -14 1 -14 -4 0 -10 15 -14 34 -11 5 1 4 -4 -2 -12 -13 -16 -5 -107 9
-107 8 0 -4 -32 -49 -131 -12 -26 -30 -71 -42 -100 -23 -61 -45 -98 -37 -64 2
11 21 118 43 237 30 169 41 215 51 207 7 -6 18 -7 24 -3z"/>
<path d="M1149 16323 c-13 -16 -12 -17 4 -4 16 13 21 21 13 21 -2 0 -10 -8
-17 -17z"/>
<path d="M1292 16283 c-56 -25 -101 -47 -99 -49 2 -2 45 14 96 36 51 22 94 40
96 40 2 0 6 -8 8 -17 3 -11 5 -7 6 10 0 15 0 27 -1 26 -2 0 -49 -21 -106 -46z"/>
<path d="M16942 16283 c-56 -25 -101 -47 -99 -49 2 -2 46 14 97 36 72 32 95
38 101 28 6 -9 9 -6 9 10 0 12 -1 22 -2 21 -2 0 -49 -21 -106 -46z"/>
<path d="M1541 16316 c9 -8 173 -76 176 -72 2 2 -34 20 -81 40 -76 32 -107 43
-95 32z"/>
<path d="M9092 16273 c-56 -25 -101 -47 -99 -49 2 -2 50 16 107 41 79 34 106
42 112 33 5 -10 8 -8 8 5 0 24 -11 21 -128 -30z"/>
<path d="M9361 16298 c1 -17 2 -19 6 -5 2 9 6 17 8 17 2 0 33 -14 71 -30 37
-17 69 -29 71 -27 4 4 -135 67 -148 67 -5 0 -8 -10 -8 -22z"/>
<path d="M17274 16280 c49 -22 91 -39 93 -37 4 5 -158 77 -172 77 -5 0 30 -18
79 -40z"/>
<path d="M1532 16270 c0 -19 2 -27 5 -17 2 9 2 25 0 35 -3 9 -5 1 -5 -18z"/>
<path d="M17182 16270 c0 -19 2 -27 5 -17 2 9 2 25 0 35 -3 9 -5 1 -5 -18z"/>
<path d="M9223 16235 c0 -22 2 -30 4 -17 2 12 2 30 0 40 -3 9 -5 -1 -4 -23z"/>
<path d="M17053 16235 c0 -22 2 -30 4 -17 2 12 2 30 0 40 -3 9 -5 -1 -4 -23z"/>
<path d="M1402 16230 c0 -19 2 -27 5 -17 2 9 2 25 0 35 -3 9 -5 1 -5 -18z"/>
<path d="M9352 16230 c0 -19 2 -27 5 -17 2 9 2 25 0 35 -3 9 -5 1 -5 -18z"/>
<path d="M9550 16235 c14 -8 30 -14 35 -14 6 0 -1 6 -15 14 -14 8 -29 14 -35
14 -5 0 1 -6 15 -14z"/>
<path d="M1523 16195 c0 -22 2 -30 4 -17 2 12 2 30 0 40 -3 9 -5 -1 -4 -23z"/>
<path d="M17172 16190 c0 -19 2 -27 5 -17 2 9 2 25 0 35 -3 9 -5 1 -5 -18z"/>
<path d="M9230 16178 c-1 -34 54 -454 60 -460 3 -5 12 44 19 107 7 64 11 118
8 121 -2 3 -8 -29 -12 -71 -4 -41 -10 -75 -14 -75 -4 0 -18 88 -30 195 -13
107 -26 195 -27 195 -2 0 -4 -6 -4 -12z"/>
<path d="M9343 16155 c0 -22 2 -30 4 -17 2 12 2 30 0 40 -3 9 -5 -1 -4 -23z"/>
<path d="M1412 16155 c0 -16 2 -22 5 -12 2 9 2 23 0 30 -3 6 -5 -1 -5 -18z"/>
<path d="M17062 16155 c0 -16 2 -22 5 -12 2 9 2 23 0 30 -3 6 -5 -1 -5 -18z"/>
<path d="M1513 16115 c0 -22 2 -30 4 -17 2 12 2 30 0 40 -3 9 -5 -1 -4 -23z"/>
<path d="M17162 16110 c0 -19 2 -27 5 -17 2 9 2 25 0 35 -3 9 -5 1 -5 -18z"/>
<path d="M9333 16075 c0 -22 2 -30 4 -17 2 12 2 30 0 40 -3 9 -5 -1 -4 -23z"/>
<path d="M17073 16075 c0 -22 2 -30 4 -17 2 12 2 30 0 40 -3 9 -5 -1 -4 -23z"/>
<path d="M1422 16070 c0 -19 2 -27 5 -17 2 9 2 25 0 35 -3 9 -5 1 -5 -18z"/>
<path d="M1502 16030 c0 -19 2 -27 5 -17 2 9 2 25 0 35 -3 9 -5 1 -5 -18z"/>
<path d="M17152 16030 c0 -19 2 -27 5 -17 2 9 2 25 0 35 -3 9 -5 1 -5 -18z"/>
<path d="M9323 15995 c0 -22 2 -30 4 -17 2 12 2 30 0 40 -3 9 -5 -1 -4 -23z"/>
<path d="M1432 15990 c0 -19 2 -27 5 -17 2 9 2 25 0 35 -3 9 -5 1 -5 -18z"/>
<path d="M17082 15990 c0 -19 2 -27 5 -17 2 9 2 25 0 35 -3 9 -5 1 -5 -18z"/>
<path d="M1493 15955 c0 -22 2 -30 4 -17 2 12 2 30 0 40 -3 9 -5 -1 -4 -23z"/>
<path d="M14270 15855 c614 -833 670 -906 682 -899 7 4 5 10 -6 16 -17 9 -22
28 -8 28 15 0 264 -342 255 -350 -18 -17 -158 -58 -168 -49 -6 7 -5 13 5 20
13 10 13 10 0 6 -18 -5 -243 -86 -550 -198 -124 -45 -340 -123 -480 -174 -326
-119 -396 -147 -350 -140 19 2 184 20 365 40 701 75 1168 130 1120 133 -44 3
-86 18 -53 19 7 0 27 3 43 7 17 3 59 9 94 12 l63 7 -6 -29 c-8 -40 -67 -352
-73 -389 -2 -16 -9 -34 -15 -40 -8 -9 -6 16 6 60 2 6 -1 19 -5 30 l-9 20 2
-20 c0 -11 -2 -27 -5 -35 -4 -8 -47 -242 -97 -520 -50 -278 -99 -552 -110
-609 -11 -58 -18 -106 -17 -108 3 -2 134 292 287 647 39 91 74 170 76 176 3 6
-1 11 -9 11 -8 0 -12 -7 -10 -17 3 -10 -2 -20 -11 -23 -26 -10 -17 14 139 373
53 124 111 257 127 295 17 39 33 73 37 77 4 5 22 -5 41 -22 19 -16 38 -29 43
-30 4 0 7 270 7 600 0 350 -4 600 -10 600 -5 0 -12 -10 -16 -22 -9 -31 -202
-469 -208 -476 -6 -6 -33 15 -326 264 -253 214 -290 248 -290 266 0 9 3 9 10
-2 5 -8 10 -11 10 -6 0 5 7 3 15 -4 8 -7 15 -10 15 -7 0 2 -37 36 -82 74 -46
38 -198 165 -338 283 -140 117 -264 220 -274 229 -10 9 27 -47 84 -124z m395
-345 c-3 -5 0 -12 6 -15 5 -4 8 -13 5 -21 -3 -8 -1 -14 5 -14 6 0 8 -4 4 -9
-3 -5 -1 -12 4 -16 6 -3 7 -13 4 -22 -5 -12 -3 -14 7 -8 9 5 11 4 6 -3 -4 -7
-4 -18 1 -24 4 -7 9 -22 10 -33 3 -21 4 -22 -45 40 -26 33 -240 322 -247 334
-4 8 49 -34 118 -94 70 -59 125 -111 122 -115z m85 -210 c0 -5 -2 -10 -4 -10
-3 0 -8 5 -11 10 -3 6 -1 10 4 10 6 0 11 -4 11 -10z m145 -779 c-3 -5 0 -13 6
-16 5 -4 8 -13 5 -21 -3 -8 -2 -14 3 -14 4 0 15 -36 25 -79 9 -44 22 -81 29
-84 6 -2 -54 -11 -133 -21 -867 -103 -943 -111 -889 -91 184 66 475 170 659
235 129 45 244 86 255 90 27 12 47 12 40 1z m270 -1134 c6 -15 10 -16 17 -5
11 15 6 -12 -8 -46 -5 -13 -4 -17 4 -13 6 4 -19 -61 -54 -145 -60 -141 -85
-191 -71 -143 6 19 73 378 85 455 6 31 7 29 13 -25 4 -33 10 -68 14 -78z"/>
<path d="M14630 15514 c0 -8 5 -12 10 -9 6 4 8 11 5 16 -9 14 -15 11 -15 -7z"/>
<path d="M14640 15469 c0 -5 5 -7 10 -4 6 3 10 8 10 11 0 2 -4 4 -10 4 -5 0
-10 -5 -10 -11z"/>
<path d="M17142 15950 c0 -19 2 -27 5 -17 2 9 2 25 0 35 -3 9 -5 1 -5 -18z"/>
<path d="M17092 15910 c0 -19 2 -27 5 -17 2 9 2 25 0 35 -3 9 -5 1 -5 -18z"/>
<path d="M1442 15900 c0 -44 25 -234 27 -200 1 14 3 50 6 80 3 37 2 47 -4 30
-6 -20 -10 -11 -18 50 -6 41 -11 59 -11 40z"/>
<path d="M1482 15880 c0 -19 2 -27 5 -17 2 9 2 25 0 35 -3 9 -5 1 -5 -18z"/>
<path d="M17132 15870 c0 -19 2 -27 5 -17 2 9 2 25 0 35 -3 9 -5 1 -5 -18z"/>
<path d="M17106 15800 c6 -112 5 -109 14 -75 11 45 12 103 1 86 -7 -11 -11 -8
-14 15 -2 16 -3 4 -1 -26z"/>
<path d="M7896 15593 c-6 -14 -5 -15 5 -6 7 7 10 15 7 18 -3 3 -9 -2 -12 -12z"/>
<path d="M7 15360 c-13 -44 -4 -1173 10 -1177 8 -3 11 90 11 374 0 444 -10
839 -21 803z"/>
<path d="M14910 15366 c0 -2 8 -10 18 -17 15 -13 16 -12 3 4 -13 16 -21 21
-21 13z"/>
<path d="M7120 15335 c13 -14 26 -25 28 -25 3 0 -5 11 -18 25 -13 14 -26 25
-28 25 -3 0 5 -11 18 -25z"/>
<path d="M14970 15316 c0 -2 8 -10 18 -17 15 -13 16 -12 3 4 -13 16 -21 21
-21 13z"/>
<path d="M7160 15306 c0 -2 8 -10 18 -17 15 -13 16 -12 3 4 -13 16 -21 21 -21
13z"/>
<path d="M15872 15235 c0 -16 2 -22 5 -12 2 9 2 23 0 30 -3 6 -5 -1 -5 -18z"/>
<path d="M15862 15175 c0 -16 2 -22 5 -12 2 9 2 23 0 30 -3 6 -5 -1 -5 -18z"/>
<path d="M8015 15105 c-3 -26 -4 -49 -2 -51 3 -3 8 16 12 41 3 26 4 49 2 51
-3 3 -8 -16 -12 -41z"/>
<path d="M15852 15120 c0 -14 2 -19 5 -12 2 6 2 18 0 25 -3 6 -5 1 -5 -13z"/>
<path d="M15841 15054 c0 -11 3 -14 6 -6 3 7 2 16 -1 19 -3 4 -6 -2 -5 -13z"/>
<path d="M181 15004 c0 -11 3 -14 6 -6 3 7 2 16 -1 19 -3 4 -6 -2 -5 -13z"/>
<path d="M15831 15004 c0 -11 3 -14 6 -6 3 7 2 16 -1 19 -3 4 -6 -2 -5 -13z"/>
<path d="M171 14944 c0 -11 3 -14 6 -6 3 7 2 16 -1 19 -3 4 -6 -2 -5 -13z"/>
<path d="M15821 14944 c0 -11 3 -14 6 -6 3 7 2 16 -1 19 -3 4 -6 -2 -5 -13z"/>
<path d="M15011 14853 c23 -35 49 -69 57 -75 18 -14 -34 61 -74 107 -14 17 -7
2 17 -32z"/>
<path d="M198 14823 c12 -2 30 -2 40 0 9 3 -1 5 -23 4 -22 0 -30 -2 -17 -4z"/>
<path d="M8018 14823 c12 -2 30 -2 40 0 9 3 -1 5 -23 4 -22 0 -30 -2 -17 -4z"/>
<path d="M15848 14823 c12 -2 30 -2 40 0 9 3 -1 5 -23 4 -22 0 -30 -2 -17 -4z"/>
<path d="M15080 14756 c0 -2 8 -10 18 -17 15 -13 16 -12 3 4 -13 16 -21 21
-21 13z"/>
<path d="M15060 14640 c-8 -5 -10 -10 -5 -10 6 0 17 5 25 10 8 5 11 10 5 10
-5 0 -17 -5 -25 -10z"/>
<path d="M320 14326 c0 -2 8 -10 18 -17 15 -13 16 -12 3 4 -13 16 -21 21 -21
13z"/>
<path d="M15970 14326 c0 -2 8 -10 18 -17 15 -13 16 -12 3 4 -13 16 -21 21
-21 13z"/>
<path d="M350 14286 c0 -2 8 -10 18 -17 15 -13 16 -12 3 4 -13 16 -21 21 -21
13z"/>
<path d="M16012 14275 c23 -36 100 -135 105 -135 6 0 -54 83 -89 122 -16 18
-23 24 -16 13z"/>
<path d="M4613 14242 c-19 -26 -22 -45 -25 -193 -3 -147 -6 -164 -21 -167 -16
-3 -17 3 -11 73 7 75 6 77 -13 66 -11 -5 -23 -8 -25 -5 -3 2 -20 -16 -39 -41
-26 -35 -39 -44 -56 -40 -12 3 -23 2 -25 -3 -2 -4 -17 -15 -35 -24 -24 -12
-34 -14 -41 -5 -15 18 -81 161 -76 166 2 2 18 -7 36 -21 50 -37 55 -39 62 -23
5 14 -48 62 -166 149 l-38 28 16 -38 c9 -22 43 -95 75 -163 33 -68 59 -125 59
-126 0 -2 -75 -34 -166 -71 -191 -80 -195 -73 54 -94 78 -7 142 -17 142 -21 0
-11 -38 -286 -45 -324 -5 -26 -1 -23 31 24 34 51 54 109 33 95 -12 -7 -11 73
1 97 6 10 17 19 25 19 8 0 15 4 15 9 0 5 7 12 16 15 10 4 13 2 9 -7 -9 -17 42
40 54 60 8 15 13 16 30 5 12 -7 21 -9 21 -5 0 5 16 19 35 32 26 17 34 29 30
42 -4 11 -2 19 4 19 10 0 15 -20 12 -42 0 -4 17 -46 39 -94 22 -48 38 -89 36
-91 -3 -3 -20 7 -39 21 -36 28 -53 33 -41 14 5 -8 1 -9 -12 -4 -12 4 -15 4 -9
-2 25 -23 194 -152 198 -152 5 0 -70 165 -125 277 -12 24 -20 44 -17 46 2 2
78 34 169 73 144 60 161 69 130 72 -197 17 -322 31 -326 35 -6 6 34 326 42
339 12 20 -4 5 -23 -20z m-93 -242 c0 -5 -5 -10 -11 -10 -5 0 -7 5 -4 10 3 6
8 10 11 10 2 0 4 -4 4 -10z m247 -146 c-3 -3 -12 -4 -19 -1 -8 3 -5 6 6 6 11
1 17 -2 13 -5z m-411 -140 c-3 -9 -6 -34 -6 -57 0 -27 -3 -37 -9 -29 -4 8 -7
23 -6 35 1 12 3 32 4 45 0 12 6 22 12 22 6 0 8 -7 5 -16z"/>
<path d="M12416 14211 c-22 -31 -32 -50 -23 -42 15 12 17 10 18 -15 2 -64 -3
-209 -8 -217 -2 -4 1 -14 7 -22 15 -18 5 -35 -21 -35 -17 0 -20 5 -15 28 5 27
9 85 7 110 -1 6 -6 12 -12 12 -5 0 -7 -5 -3 -11 4 -8 -1 -9 -16 -4 -15 5 -20
4 -16 -4 4 -6 2 -11 -4 -11 -6 0 -8 -5 -4 -12 4 -6 3 -8 -4 -4 -6 3 -22 -8
-36 -26 -23 -30 -28 -32 -47 -20 -12 8 -18 9 -15 3 4 -6 -4 -13 -19 -17 -14
-3 -25 -10 -25 -16 0 -5 -8 -8 -17 -6 -16 3 -101 146 -102 171 -1 5 22 -8 49
-28 28 -20 50 -31 50 -25 0 7 7 10 18 6 15 -6 15 -5 2 7 -25 24 -209 167 -214
167 -2 0 29 -73 70 -162 41 -89 71 -165 67 -168 -5 -4 -79 -36 -165 -71 -86
-35 -155 -65 -154 -66 1 -1 82 -10 179 -19 111 -11 177 -21 177 -28 0 -6 -11
-86 -23 -179 -13 -92 -20 -164 -17 -160 10 12 75 106 85 123 7 13 6 13 -7 2
-13 -10 -17 -10 -22 4 -14 36 0 147 15 122 6 -9 9 -10 9 -1 0 7 6 10 14 7 7
-3 16 2 19 10 4 9 13 16 21 16 8 0 24 14 36 30 16 22 27 29 41 25 13 -4 34 4
61 24 23 17 37 31 30 31 -7 0 -12 7 -12 15 0 8 6 15 14 15 8 0 12 -9 11 -23
-2 -13 15 -61 36 -107 21 -45 39 -87 39 -92 0 -6 -15 1 -32 14 -18 13 -40 28
-48 33 -13 8 -13 7 -1 -8 17 -21 3 -22 -27 -1 -12 8 -22 13 -22 11 0 -4 195
-158 218 -171 16 -9 10 5 -72 180 -31 66 -56 125 -56 131 0 5 69 38 153 73 83
35 155 66 160 70 4 3 -72 13 -168 22 -96 8 -177 17 -179 19 -2 2 7 80 20 174
13 93 22 170 21 171 -1 1 -20 -24 -41 -55z m-237 -498 c0 -10 -4 -36 -8 -58
-9 -40 -9 -39 -10 18 0 32 3 57 9 57 6 0 10 -8 9 -17z"/>
<path d="M404 14217 c16 -20 30 -37 33 -37 7 0 -36 58 -49 66 -7 4 1 -9 16
-29z"/>
<path d="M19804 14169 c8 -19 42 -92 75 -163 46 -98 58 -132 49 -138 -7 -4
-82 -36 -166 -70 -178 -73 -183 -67 66 -88 l143 -13 -7 -56 c-4 -31 -14 -110
-24 -176 -9 -66 -16 -121 -16 -122 1 -1 18 21 37 50 31 46 34 56 26 86 -4 19
-6 53 -2 75 7 45 7 50 4 118 -1 27 1 51 4 55 4 3 7 42 7 85 0 60 -4 80 -15 84
-12 5 -95 162 -95 180 0 3 17 -7 38 -23 53 -42 59 -45 66 -28 5 14 -48 62
-166 149 l-38 28 14 -33z"/>
<path d="M7391 14164 c0 -11 3 -14 6 -6 3 7 2 16 -1 19 -3 4 -6 -2 -5 -13z"/>
<path d="M15337 13585 c-24 -50 -20 -58 4 -12 11 22 19 41 17 43 -3 2 -12 -12
-21 -31z"/>
<path d="M7502 13565 c-17 -37 -14 -45 4 -12 9 16 14 31 11 33 -2 2 -9 -7 -15
-21z"/>
<path d="M1738 12543 c-16 -24 -24 -42 -20 -39 5 3 8 -63 6 -147 -2 -132 -5
-152 -19 -155 -15 -3 -16 5 -10 70 7 70 6 74 -13 74 -11 0 -18 -4 -16 -8 3 -4
-2 -8 -11 -8 -9 0 -13 -4 -10 -10 3 -5 -1 -10 -9 -10 -9 0 -16 -3 -16 -7 -1
-5 -10 -19 -21 -32 -17 -21 -23 -22 -45 -12 -15 6 -23 7 -19 1 3 -5 -5 -14
-18 -19 -14 -6 -28 -15 -32 -21 -3 -5 -11 -8 -16 -4 -13 8 -92 165 -86 171 3
2 25 -10 48 -27 24 -17 45 -26 47 -21 2 6 9 8 15 4 7 -4 6 0 -1 10 -15 18
-212 171 -212 164 0 -2 32 -73 71 -157 38 -84 68 -158 66 -164 -3 -6 -75 -40
-162 -76 -181 -75 -184 -69 53 -90 l142 -13 0 -26 c-1 -14 -9 -91 -19 -171
-10 -80 -17 -146 -16 -148 3 -4 33 38 65 93 20 33 21 38 5 25 -17 -14 -18 -13
-12 2 3 9 2 18 -3 20 -5 2 -4 23 1 48 5 25 10 50 11 55 1 6 15 11 32 11 28 1
44 15 82 69 12 16 17 18 33 8 11 -7 21 -9 23 -5 2 4 17 18 35 30 22 16 30 28
26 42 -3 11 -1 20 4 20 5 0 10 -14 11 -31 1 -16 21 -66 43 -111 22 -44 38 -82
35 -85 -2 -3 -20 7 -39 21 -36 28 -53 33 -41 14 5 -8 2 -9 -9 -5 -10 3 -17 5
-17 3 0 -2 48 -40 106 -85 58 -46 105 -78 103 -73 -2 5 -37 80 -78 166 -41 86
-72 158 -70 159 2 2 72 32 154 66 83 35 154 67 158 70 4 4 -59 13 -140 20
-190 16 -203 18 -203 40 0 10 9 87 21 171 11 83 19 153 17 155 -2 2 -15 -17
-30 -42z m162 -367 c0 -2 -7 -7 -16 -10 -8 -3 -12 -2 -9 4 6 10 25 14 25 6z
m-407 -168 c-8 -61 -23 -72 -23 -17 0 25 3 49 7 52 15 16 21 4 16 -35z"/>
<path d="M9555 12533 c-21 -32 -29 -50 -19 -41 19 17 19 15 17 -75 -1 -51 -4
-111 -8 -134 -3 -24 -2 -44 4 -47 16 -10 1 -36 -20 -36 -18 0 -19 6 -13 75 l6
74 -32 -12 c-19 -7 -44 -29 -58 -50 -20 -30 -30 -37 -47 -33 -12 3 -30 -1 -41
-8 -52 -36 -59 -32 -103 59 -22 47 -41 88 -41 91 0 3 17 -7 38 -23 53 -42 59
-45 66 -28 5 14 -48 62 -166 149 l-38 28 45 -102 c25 -56 59 -129 76 -162 24
-48 28 -62 17 -69 -7 -5 -82 -37 -165 -71 -176 -73 -181 -67 65 -88 78 -7 142
-16 142 -19 -1 -3 -11 -82 -24 -176 -13 -93 -23 -171 -21 -173 1 -1 24 30 50
70 29 45 39 65 25 53 l-23 -20 5 23 c4 12 3 22 -2 22 -4 0 -4 19 0 42 5 23 5
48 2 57 -4 10 -1 13 11 8 9 -3 17 -2 17 3 0 6 3 9 8 8 16 -4 59 25 77 53 21
30 39 37 50 19 4 -7 17 -1 32 14 14 14 29 24 33 21 4 -3 13 2 20 10 9 10 9 15
1 15 -6 0 -11 7 -11 15 0 18 20 20 21 3 2 -33 11 -62 44 -133 19 -43 34 -80
32 -81 -2 -2 -19 8 -38 21 -18 14 -35 21 -37 15 -2 -6 -11 -6 -25 1 -19 10
-20 10 -7 -3 22 -22 210 -169 210 -165 0 2 -34 78 -75 167 -41 90 -74 164 -72
165 1 1 70 29 152 64 83 34 156 65 163 69 6 5 -67 15 -163 24 -96 8 -177 17
-179 19 -3 3 6 81 18 174 13 94 22 171 21 173 -1 1 -19 -24 -40 -55z m-241
-525 c-9 -62 -21 -67 -20 -9 1 34 5 51 14 51 9 0 10 -12 6 -42z"/>
<path d="M17393 12548 c-16 -29 -18 -54 -18 -190 0 -147 -1 -158 -18 -158 -17
0 -18 6 -12 74 7 73 7 75 -14 69 -11 -3 -21 -10 -21 -15 0 -5 -4 -7 -9 -3 -5
3 -22 -13 -38 -35 -24 -34 -32 -39 -55 -34 -19 4 -28 1 -28 -7 0 -7 -3 -10 -6
-6 -4 3 -13 0 -21 -8 -8 -8 -21 -15 -29 -15 -14 0 -99 158 -90 167 3 3 24 -9
48 -26 24 -17 44 -27 46 -21 2 5 8 8 13 4 5 -3 9 -3 9 0 0 8 -213 176 -217
172 -3 -3 59 -138 126 -275 11 -25 21 -46 21 -47 0 -1 -74 -32 -165 -70 -90
-37 -163 -69 -162 -71 2 -1 79 -10 172 -19 94 -9 173 -19 176 -23 4 -3 -3 -80
-16 -171 -12 -91 -21 -167 -19 -168 1 -2 18 20 37 48 32 47 40 90 16 90 -5 0
-6 6 -4 13 3 6 6 30 8 51 3 29 9 40 23 42 10 2 20 7 22 13 2 5 9 8 17 5 7 -3
25 12 41 35 31 43 43 48 62 29 7 -7 12 -8 12 -2 0 6 16 19 35 30 28 15 33 22
29 41 -4 14 -2 23 5 23 6 0 11 -13 11 -28 0 -15 18 -66 40 -111 22 -46 39 -86
36 -88 -3 -3 -20 7 -39 21 -36 28 -53 33 -41 14 5 -8 2 -9 -9 -5 -10 3 -17 5
-17 3 0 -2 48 -40 106 -86 59 -45 104 -76 102 -69 -3 8 -39 83 -79 167 -40 83
-70 154 -68 155 2 2 78 35 169 73 144 60 161 69 130 72 -204 18 -322 31 -327
36 -4 3 4 78 16 167 12 89 20 163 18 166 -3 2 -13 -11 -24 -29z m157 -372 c0
-2 -7 -7 -16 -10 -8 -3 -12 -2 -9 4 6 10 25 14 25 6z m-407 -168 c-6 -46 -10
-55 -19 -45 -8 8 6 87 16 87 4 0 6 -19 3 -42z"/>
<path d="M2577 9777 c-15 -23 -35 -53 -44 -67 -17 -25 -17 -25 4 -7 l21 18 -1
-143 c-1 -134 -5 -157 -30 -158 -4 0 -5 37 -2 83 3 45 2 75 -2 67 -5 -8 -16
-16 -27 -18 -12 -2 -16 1 -11 10 11 21 -34 -34 -52 -64 -18 -30 -29 -33 -52
-19 -10 7 -25 1 -49 -17 -28 -21 -35 -23 -43 -11 -11 15 -79 159 -79 165 0 2
23 -13 52 -33 35 -25 50 -32 45 -20 -7 20 4 22 21 5 7 -7 12 -10 12 -6 0 3
-46 40 -102 83 -57 43 -109 83 -116 89 -16 12 -12 0 72 -181 31 -67 56 -127
56 -132 0 -5 -73 -40 -162 -78 -89 -37 -156 -69 -148 -70 8 -1 89 -9 179 -18
91 -9 166 -17 167 -18 1 -1 -9 -78 -22 -172 -13 -93 -23 -174 -24 -179 0 -4
15 14 33 40 33 48 42 80 27 99 -5 6 -5 29 0 52 4 24 6 55 3 70 l-3 28 10 -25
c9 -20 13 -22 20 -10 5 8 10 11 10 7 0 -5 7 -1 16 7 8 9 21 16 28 16 6 0 19
13 29 29 18 30 53 46 64 29 4 -7 1 -8 -7 -3 -9 6 -11 4 -5 -5 6 -10 10 -10 19
2 6 8 25 22 41 31 17 9 25 16 18 17 -13 0 -5 40 8 40 5 0 9 -13 9 -28 0 -15
18 -66 40 -111 22 -46 39 -85 37 -87 -2 -2 -22 10 -45 27 -30 22 -40 26 -35
13 4 -12 3 -15 -5 -10 -7 4 -12 5 -12 2 0 -6 186 -156 194 -156 2 0 -29 73
-70 162 -53 115 -71 163 -63 169 7 4 81 35 166 69 84 35 152 64 151 65 -5 5
-112 14 -231 21 -71 4 -120 12 -123 18 -2 6 7 88 20 181 13 94 22 171 22 172
-1 1 -14 -17 -29 -40z m-251 -523 c-3 -9 -6 -25 -6 -36 0 -12 -3 -18 -7 -14
-14 13 -9 66 6 66 8 0 11 -6 7 -16z"/>
<path d="M18235 9787 c-11 -18 -20 -40 -21 -50 -1 -10 -5 -21 -9 -25 -5 -4 -5
1 -2 11 9 25 2 21 -19 -10 -15 -24 -15 -26 -1 -14 14 11 18 11 22 0 8 -26 0
-264 -10 -271 -22 -17 -26 -5 -20 70 3 42 2 71 -1 64 -3 -6 -10 -10 -15 -6 -5
3 -12 -1 -15 -10 -3 -8 -11 -13 -18 -10 -7 3 -24 -11 -37 -30 -24 -36 -42 -45
-54 -26 -10 16 -28 11 -21 -6 3 -8 2 -12 -4 -9 -6 3 -20 -1 -32 -9 -12 -9 -26
-16 -30 -16 -6 0 -88 165 -88 177 0 2 21 -12 46 -32 48 -36 76 -47 54 -20 -14
17 -1 20 18 5 7 -6 7 -5 0 3 -14 15 -185 148 -206 161 -7 4 -1 -19 14 -51 14
-32 33 -73 41 -91 7 -19 27 -61 43 -95 17 -33 30 -66 30 -73 0 -7 -73 -43
-162 -81 -89 -37 -156 -69 -148 -70 8 -1 89 -9 179 -18 91 -9 166 -17 167 -18
1 -1 -9 -80 -22 -176 -13 -96 -23 -176 -21 -177 1 0 26 35 55 80 29 44 41 68
26 51 -14 -17 -24 -22 -21 -13 4 10 2 20 -2 23 -18 11 1 90 27 113 14 12 29
23 34 23 4 1 13 2 18 3 6 0 10 4 10 8 1 14 51 59 63 56 16 -4 77 22 77 32 0 5
9 6 20 3 10 -3 19 -8 18 -12 -1 -3 15 -42 35 -85 20 -44 36 -81 34 -82 -2 -2
-22 10 -45 27 -30 22 -40 26 -35 13 4 -12 3 -15 -5 -10 -7 4 -12 5 -12 2 0 -7
191 -159 195 -154 1 1 -31 75 -71 162 -41 87 -74 160 -74 161 0 1 74 33 165
70 91 37 164 69 163 70 -6 5 -114 15 -231 21 -71 4 -120 12 -123 18 -2 6 7 88
20 181 13 94 22 171 22 172 -1 1 -11 -12 -21 -30z m-448 -483 c-3 -3 -12 -4
-19 -1 -8 3 -5 6 6 6 11 1 17 -2 13 -5z m423 -15 c0 -11 -4 -17 -10 -14 -5 3
-10 13 -10 21 0 8 5 14 10 14 6 0 10 -9 10 -21z m-237 -56 c-3 -21 -10 -45
-14 -53 -7 -13 -7 17 0 83 1 4 5 7 10 7 6 0 7 -17 4 -37z"/>
<path d="M10395 9773 c-25 -37 -32 -59 -17 -49 8 5 7 -71 -2 -194 -3 -41 -3
-70 -1 -65 6 12 52 345 48 345 -1 0 -14 -17 -28 -37z"/>
<path d="M9938 9724 c25 -47 143 -307 140 -309 -2 -1 -75 -33 -163 -70 -88
-37 -161 -68 -163 -70 -1 -1 57 -7 130 -14 73 -6 155 -14 181 -18 l48 -6 -7
-61 c-4 -33 -14 -114 -24 -178 -9 -65 -16 -118 -14 -118 1 0 20 29 42 64 35
56 38 66 25 78 -11 12 -12 28 -5 89 5 41 10 61 11 44 2 -28 3 -29 16 -11 8 10
21 16 29 13 10 -4 25 7 43 33 29 41 42 47 59 30 6 -6 19 -1 37 15 14 14 30 26
34 26 5 0 7 11 6 25 -1 16 3 24 10 21 7 -2 11 -13 9 -25 -2 -11 15 -57 38
-101 22 -44 40 -85 40 -91 0 -6 -17 1 -37 15 -21 14 -39 21 -41 15 -2 -6 -8
-8 -13 -4 -5 3 -9 3 -9 1 0 -4 167 -138 187 -151 17 -9 11 5 -71 178 -37 76
-65 140 -63 142 2 2 70 31 152 64 81 34 155 64 163 69 8 5 -39 13 -115 19
-171 16 -221 15 -240 -3 -23 -23 -33 -8 -26 40 7 51 -4 106 -17 86 -4 -8 -13
-11 -18 -7 -6 4 -26 -14 -44 -39 -26 -36 -38 -44 -55 -40 -13 3 -23 1 -23 -5
0 -5 -3 -9 -7 -8 -5 1 -21 -4 -37 -11 -16 -6 -30 -10 -31 -9 -6 7 -85 168 -85
173 0 3 21 -9 47 -26 31 -22 48 -28 51 -20 3 9 7 9 18 0 8 -6 14 -9 14 -7 0 5
-194 158 -218 173 -11 6 -12 3 -4 -11z m27 -414 c-3 -5 -14 -10 -23 -9 -14 0
-13 2 3 9 27 11 27 11 20 0z m184 -62 c0 -13 -4 -32 -9 -43 -7 -15 -9 -10 -9
23 -1 23 4 42 9 42 6 0 10 -10 9 -22z"/>
<path d="M5371 9640 c0 -20 -8 -89 -16 -154 -9 -65 -14 -123 -12 -130 2 -6 10
35 17 91 7 57 16 100 21 97 11 -6 11 37 0 91 l-9 40 -1 -35z"/>
<path d="M13197 9625 c-9 -55 -9 -93 1 -77 5 7 17 -54 28 -148 10 -88 21 -160
24 -160 3 0 -2 66 -12 148 -10 81 -22 176 -26 212 -8 64 -8 64 -15 25z"/>
<path d="M5390 9514 c0 -29 57 -475 61 -478 5 -5 191 76 186 80 -2 2 -41 -12
-86 -32 -46 -20 -87 -32 -91 -27 -4 4 -19 112 -35 238 -25 209 -35 272 -35
219z"/>
<path d="M13183 9495 c0 -22 2 -30 4 -17 2 12 2 30 0 40 -3 9 -5 -1 -4 -23z"/>
<path d="M13172 9420 c0 -19 2 -27 5 -17 2 9 2 25 0 35 -3 9 -5 1 -5 -18z"/>
<path d="M13163 9335 c0 -22 2 -30 4 -17 2 12 2 30 0 40 -3 9 -5 -1 -4 -23z"/>
<path d="M5332 9300 c0 -19 2 -27 5 -17 2 9 2 25 0 35 -3 9 -5 1 -5 -18z"/>
<path d="M13152 9260 c0 -19 2 -27 5 -17 2 9 2 25 0 35 -3 9 -5 1 -5 -18z"/>
<path d="M5322 9220 c0 -19 2 -27 5 -17 2 9 2 25 0 35 -3 9 -5 1 -5 -18z"/>
<path d="M13253 9195 c0 -22 2 -30 4 -17 2 12 2 30 0 40 -3 9 -5 -1 -4 -23z"/>
<path d="M13142 9180 c0 -19 2 -27 5 -17 2 9 2 25 0 35 -3 9 -5 1 -5 -18z"/>
<path d="M5312 9140 c0 -19 2 -27 5 -17 2 9 2 25 0 35 -3 9 -5 1 -5 -18z"/>
<path d="M13132 9100 c0 -19 2 -27 5 -17 2 9 2 25 0 35 -3 9 -5 1 -5 -18z"/>
<path d="M13262 9105 c0 -16 2 -22 5 -12 2 9 2 23 0 30 -3 6 -5 -1 -5 -18z"/>
<path d="M12950 9110 c8 -5 20 -10 25 -10 6 0 3 5 -5 10 -8 5 -19 10 -25 10
-5 0 -3 -5 5 -10z"/>
<path d="M5141 9106 c3 -3 42 -21 87 -40 l82 -35 -1 32 c-1 23 -3 26 -6 10 -2
-13 -7 -23 -9 -23 -3 0 -37 14 -76 30 -67 29 -86 35 -77 26z"/>
<path d="M13348 9076 c-43 -17 -78 -34 -78 -38 0 -9 38 5 115 42 79 37 60 35
-37 -4z"/>
<path d="M13010 9087 c11 -12 120 -57 120 -49 0 4 -24 16 -52 27 -29 11 -57
21 -63 24 -5 2 -8 1 -5 -2z"/>
<path d="M5020 9066 c0 -2 8 -10 18 -17 15 -13 16 -12 3 4 -13 16 -21 21 -21
13z"/>
<path d="M12870 9046 c0 -3 37 -33 83 -67 45 -34 84 -64 86 -65 2 -2 -2 -12
-10 -21 -12 -17 -12 -17 6 -1 12 11 15 21 10 26 -27 24 -175 132 -175 128z"/>
<path d="M5060 9035 c0 -2 36 -32 80 -65 l81 -62 -66 -49 c-36 -27 -65 -52
-65 -56 0 -3 15 6 33 19 17 13 49 37 70 52 20 16 37 31 37 35 0 4 -38 35 -85
69 -47 34 -85 60 -85 57z"/>
<path d="M5620 8984 c-64 -50 -73 -63 -17 -24 42 30 77 61 66 59 -2 0 -24 -16
-49 -35z"/>
<path d="M13459 8993 c-13 -16 -12 -17 4 -4 9 7 17 15 17 17 0 8 -8 3 -21 -13z"/>
<path d="M13395 8949 c-22 -16 -40 -35 -40 -40 0 -6 23 -26 50 -46 l50 -35
-40 36 c-22 20 -44 36 -50 36 -5 0 10 18 35 40 54 47 51 52 -5 9z"/>
<path d="M5537 8923 c-13 -12 -7 -21 50 -64 83 -63 93 -71 93 -66 0 3 -32 29
-70 58 -39 31 -68 59 -65 66 5 14 2 17 -8 6z"/>
<path d="M4288 8757 c-31 -73 -96 -222 -143 -332 -47 -110 -106 -245 -130
-299 -49 -108 -56 -143 -10 -46 16 33 32 60 37 60 10 0 10 0 -3 -41 -12 -39
-17 -51 -56 -139 -16 -36 -83 -190 -149 -342 -65 -153 -123 -278 -127 -278 -4
0 -47 33 -95 74 -48 41 -166 141 -262 222 -211 178 -257 221 -248 230 7 6 23
-5 106 -71 17 -15 32 -24 32 -22 0 3 -55 51 -122 108 -68 57 -224 189 -348
293 -301 254 -337 284 -324 266 32 -44 464 -631 626 -851 189 -256 298 -394
193 -245 -30 43 -52 82 -49 87 3 5 0 9 -5 9 -6 0 -11 7 -11 16 0 9 -5 12 -12
8 -7 -5 -8 -3 -3 6 6 10 13 7 27 -11 34 -44 214 -284 236 -316 l22 -31 -82
-27 c-46 -15 -88 -28 -95 -30 -29 -9 1 23 33 34 20 7 34 15 32 17 -4 4 -245
-80 -558 -196 -118 -43 -296 -108 -395 -144 -337 -121 -530 -197 -490 -191 22
3 285 32 585 65 595 66 872 100 880 107 2 2 -2 8 -9 12 -16 10 7 16 107 29 74
10 72 18 42 -138 -12 -58 -23 -122 -26 -143 -3 -21 -7 -45 -8 -52 -1 -8 -5
-18 -9 -21 -4 -4 -7 -19 -7 -33 0 -30 -19 -67 -21 -41 -1 8 -1 19 0 23 2 12
10 78 16 127 10 89 -5 21 -45 -205 -28 -157 -38 -231 -30 -233 7 -3 6 -8 -3
-16 -8 -6 -20 -45 -26 -86 -6 -41 -13 -86 -15 -100 -3 -14 -14 -77 -25 -140
-11 -63 -38 -218 -61 -344 -22 -126 -39 -230 -38 -232 2 -1 46 95 98 214 51
119 127 292 167 385 41 92 71 172 67 179 -4 6 -3 8 3 5 6 -4 14 0 17 9 8 21 8
24 -5 24 -5 0 -7 -4 -4 -10 3 -6 -4 -10 -16 -10 -21 0 -22 1 -4 20 10 11 15
20 11 20 -3 0 0 14 9 30 l16 30 -80 0 c-44 0 -83 5 -86 10 -4 6 26 10 82 10
l88 0 38 93 c100 241 232 537 239 535 10 -4 470 -391 613 -517 17 -14 38 -39
49 -55 l18 -29 -25 19 c-14 11 -24 24 -24 29 1 6 -4 9 -12 7 -7 -2 -24 7 -37
19 -13 12 -24 20 -24 16 0 -3 30 -31 66 -61 49 -42 73 -56 96 -56 l31 0 -44
40 c-26 24 -38 40 -29 41 10 0 8 3 -5 9 -11 5 -15 9 -8 9 8 1 9 10 2 34 -6 17
-12 41 -13 52 -2 11 -9 42 -15 69 -7 27 -10 50 -8 52 2 2 27 -29 55 -69 63
-88 171 -230 180 -237 4 -3 8 -11 10 -18 1 -7 36 -58 77 -113 41 -55 75 -102
75 -105 0 -2 -59 46 -131 107 -117 99 -171 132 -183 111 -3 -6 396 -347 527
-452 20 -16 2 14 -54 90 -47 63 -127 172 -178 243 -53 71 -101 127 -110 127
-11 0 -13 3 -4 8 9 6 -49 91 -189 280 -111 150 -204 270 -206 267 -3 -2 7 -20
21 -39 15 -18 28 -40 29 -47 2 -8 8 -18 15 -24 14 -12 21 -33 11 -34 -5 -1 -8
2 -9 7 0 4 -9 16 -19 28 -26 27 -310 407 -310 415 0 3 37 18 83 34 45 15 95
35 111 43 l30 15 -18 -28 c-17 -26 -17 -28 -1 -22 9 4 19 7 21 7 3 0 3 4 0 9
-4 5 2 7 12 4 21 -5 110 26 1017 358 339 124 354 130 310 124 -16 -3 -156 -19
-310 -35 -444 -49 -1149 -130 -1160 -134 -5 -3 2 -5 17 -5 15 -1 30 -5 33 -11
3 -5 5 -10 3 -10 -2 -1 -52 -7 -113 -14 -60 -8 -111 -13 -112 -12 -2 1 15 101
37 222 22 120 42 233 45 249 9 49 16 65 26 65 6 0 8 -8 5 -17 -6 -24 -17 -130
-11 -118 8 19 227 1237 222 1241 -1 2 -28 -57 -59 -129z m-68 -379 c-73 -409
-82 -449 -96 -437 -7 6 -13 14 -12 17 4 16 -15 119 -25 137 -15 28 -17 56 -7
80 49 108 160 376 161 387 0 9 2 9 5 1 3 -6 -9 -89 -26 -185z m-1405 -297 c61
-53 112 -99 113 -104 1 -4 9 -21 17 -37 8 -16 15 -32 14 -35 -4 -19 16 -93 29
-107 8 -10 10 -18 5 -18 -17 0 -43 47 -37 67 4 13 3 14 -3 5 -8 -10 -16 -5
-36 21 -14 19 -23 37 -20 41 4 3 2 6 -4 6 -6 0 -57 61 -113 136 -56 75 -96
133 -89 128 7 -4 63 -51 124 -103z m276 -188 c13 -16 12 -17 -3 -4 -10 7 -18
15 -18 17 0 8 8 3 21 -13z m1042 -88 c-3 -9 -8 -14 -10 -11 -3 3 -2 9 2 15 9
16 15 13 8 -4z m-1093 -83 c0 -3 -9 3 -20 13 -11 10 -20 23 -20 28 0 6 9 0 20
-13 11 -13 20 -25 20 -28z m2330 -330 c0 -8 -963 -357 -986 -357 -6 0 -20 -7
-30 -15 -11 -8 -16 -11 -12 -6 3 4 -2 31 -13 61 -10 29 -21 71 -25 94 -4 23
-10 41 -14 41 -5 0 -6 10 -2 22 3 14 1 19 -6 14 -8 -5 -10 -2 -6 8 3 9 11 16
18 17 6 0 22 2 36 4 14 3 221 27 460 55 239 27 462 54 495 59 84 12 85 12 85
3z m-2193 -439 c6 -21 17 -63 24 -93 7 -30 19 -61 28 -67 13 -11 13 -13 -3
-13 -9 0 -14 -4 -11 -10 3 -5 2 -10 -4 -10 -6 0 -106 -12 -223 -26 -741 -89
-842 -99 -787 -80 8 3 122 44 254 91 540 194 681 243 701 244 6 1 16 -16 21
-36z m1303 -569 c0 -8 -4 -14 -9 -14 -6 0 -9 9 -8 19 1 22 17 18 17 -5z
m-1050 -521 c10 -40 17 -50 29 -45 14 5 14 4 1 -12 -8 -11 -15 -26 -15 -35 0
-9 -6 -15 -13 -13 -8 1 -11 -2 -7 -8 3 -6 -3 -34 -14 -63 -31 -82 -90 -213
-91 -201 0 6 18 109 40 228 22 119 40 219 40 224 1 16 18 -26 30 -75z m27 -25
c-3 -8 -6 -5 -6 6 -1 11 2 17 5 13 3 -3 4 -12 1 -19z"/>
<path d="M19938 8757 c-114 -265 -200 -465 -256 -591 -69 -156 -74 -173 -27
-83 19 37 38 67 41 67 3 0 3 -4 0 -9 -4 -5 0 -12 6 -14 10 -4 10 -8 2 -14 -7
-4 -32 -57 -57 -118 -25 -60 -96 -225 -157 -365 -62 -140 -114 -263 -117 -272
-3 -10 -9 -18 -14 -18 -4 0 -83 64 -176 142 -92 78 -211 178 -263 222 -132
110 -173 153 -167 170 6 15 -3 23 -363 326 -280 236 -306 257 -294 240 38 -53
467 -634 607 -825 222 -300 279 -375 284 -375 5 0 -48 76 -100 143 -16 20 -25
37 -21 37 4 0 1 6 -8 13 -17 13 -31 47 -20 47 8 0 44 -44 134 -165 37 -49 82
-110 100 -134 54 -71 55 -67 -19 -91 -38 -11 -76 -25 -85 -31 -14 -7 -18 -5
-18 6 0 8 15 22 33 30 63 30 -171 -51 -533 -185 -118 -43 -296 -108 -395 -144
-340 -122 -530 -197 -490 -191 22 3 303 34 625 70 881 98 838 92 852 126 3 7
146 28 151 22 4 -3 -58 -343 -69 -383 -4 -14 -7 -28 -6 -32 1 -5 -2 -8 -8 -8
-5 0 -7 -8 -4 -17 5 -17 5 -17 -6 0 -6 9 -8 23 -3 30 4 6 8 23 8 37 1 14 5 50
8 80 4 30 5 51 2 45 -4 -8 -85 -459 -85 -472 0 -2 46 -2 102 -1 l102 3 50 116
c28 63 89 204 136 312 47 108 87 197 90 197 3 0 113 -92 245 -203 l240 -204 3
144 3 143 -126 167 c-68 93 -125 171 -125 174 0 4 39 20 88 37 48 17 95 34
105 37 28 11 20 -13 -10 -30 -27 -15 -27 -15 -3 -9 79 21 80 23 50 104 -11 30
-20 66 -20 80 0 14 -4 30 -9 36 -5 5 -11 27 -13 48 -3 37 -1 40 30 48 21 6 32
15 32 26 0 16 -7 17 -82 8 -46 -6 -70 -12 -55 -14 16 -2 26 -8 24 -15 -3 -7
-9 -11 -14 -10 -5 1 -51 -5 -103 -12 -51 -8 -95 -14 -96 -12 -4 4 75 444 90
497 l15 55 -4 -80 c-2 -44 -2 -75 0 -70 9 23 227 1237 223 1241 -2 1 -28 -57
-60 -129z m-58 -323 c-12 -66 -35 -195 -52 -289 -17 -93 -33 -188 -37 -210 -6
-39 -7 -39 -24 40 -10 43 -26 88 -35 99 -9 11 -11 16 -4 12 15 -9 14 -9 2 33
-10 36 3 67 23 54 6 -3 7 -1 3 6 -4 6 -11 9 -16 6 -5 -3 16 52 46 122 31 71
67 156 81 190 15 35 28 61 30 59 2 -2 -6 -57 -17 -122z m-1425 -345 c58 -49
103 -94 100 -99 -3 -6 0 -7 8 -4 8 3 18 0 22 -7 13 -20 15 -69 4 -69 -6 0 -7
-5 -4 -10 4 -6 11 -8 16 -5 5 4 9 -3 9 -15 0 -13 4 -19 11 -14 7 4 9 0 5 -14
-4 -12 -2 -30 4 -42 15 -27 8 -25 -21 7 -13 14 -17 23 -9 19 8 -4 5 1 -7 11
-11 10 -69 83 -128 163 -59 80 -112 151 -118 158 -24 30 10 5 108 -79z m285
-194 c11 -13 10 -14 -4 -9 -9 3 -16 10 -16 15 0 13 6 11 20 -6z m-76 -127 c1
-7 5 -20 10 -28 7 -12 6 -13 -4 -3 -8 7 -15 23 -17 35 -2 12 -1 19 3 16 3 -3
6 -12 8 -20z m159 -795 c-6 -16 -5 -17 13 -3 17 14 18 14 6 -2 -12 -14 -11
-29 3 -90 21 -90 25 -118 17 -118 -4 0 -83 -9 -177 -20 -799 -96 -890 -105
-834 -86 8 3 122 44 254 91 496 179 666 236 677 229 7 -4 8 -3 4 4 -5 8 2 12
18 12 20 0 24 -4 19 -17z m200 -208 c-3 -9 -8 -14 -10 -11 -3 3 -2 9 2 15 9
16 15 13 8 -4z"/>
<path d="M18565 7971 c-3 -5 -2 -12 3 -15 5 -3 9 1 9 9 0 17 -3 19 -12 6z"/>
<path d="M18576 7877 c3 -10 9 -15 12 -12 3 3 0 11 -7 18 -10 9 -11 8 -5 -6z"/>
<path d="M12085 8697 c-43 -100 -114 -263 -158 -362 -90 -206 -95 -217 -73
-191 15 19 16 18 12 -15 -1 -19 -8 -45 -14 -59 -6 -14 -47 -108 -90 -210 -157
-365 -226 -520 -231 -520 -13 0 -601 501 -601 511 0 4 4 11 10 14 5 3 8 0 7
-7 -2 -7 -2 -10 0 -6 3 5 26 -8 51 -28 44 -34 43 -33 -8 14 -49 46 -80 66 -66
44 3 -5 -1 -9 -9 -9 -10 0 -12 4 -5 12 7 8 -18 35 -83 91 -91 78 -515 435
-551 464 -11 8 19 -37 65 -100 47 -63 188 -254 313 -425 293 -397 427 -577
440 -590 13 -14 -20 40 -60 97 -18 26 -30 50 -25 52 5 3 14 -1 21 -9 7 -8 10
-15 7 -15 -3 0 9 -15 26 -33 18 -19 46 -53 63 -78 17 -24 62 -84 99 -132 54
-71 65 -91 54 -98 -12 -8 -48 -20 -161 -55 -10 -3 -18 -1 -18 4 0 6 25 20 55
33 77 32 62 34 -21 3 -38 -14 -150 -54 -249 -89 -157 -55 -778 -282 -1085
-396 -73 -27 -93 -38 -65 -34 22 3 305 34 628 70 324 36 639 72 700 80 62 8
118 15 126 15 11 0 9 4 -5 14 -10 8 -16 18 -11 22 4 4 7 2 7 -5 0 -9 5 -9 20
-1 10 5 54 13 96 17 72 6 76 5 71 -13 -7 -22 -77 -403 -77 -418 0 -6 -3 -7
-10 0 -6 6 -6 34 1 77 6 38 9 70 7 73 -3 2 -22 -94 -44 -214 -28 -149 -37
-219 -30 -224 8 -5 7 -8 0 -8 -7 0 -17 -26 -22 -57 -77 -427 -152 -856 -150
-859 3 -3 137 302 268 611 37 88 82 190 99 228 37 82 32 88 -8 10 -33 -64 -38
-61 -17 10 l14 47 -78 0 c-44 0 -82 5 -85 10 -4 6 26 10 84 10 83 0 90 2 97
22 7 22 252 586 261 601 5 8 38 -17 199 -153 55 -47 168 -141 250 -210 82 -69
160 -136 174 -150 14 -13 28 -24 31 -23 4 1 9 -9 12 -22 2 -14 2 -25 -1 -25
-2 0 -32 23 -66 51 l-61 51 65 -61 c36 -33 71 -58 77 -56 7 2 12 -1 10 -8 -1
-7 12 -13 33 -15 l35 -4 -29 29 c-21 22 -35 53 -52 119 -13 49 -22 94 -19 101
2 7 0 15 -4 18 -5 2 -11 14 -14 26 -8 28 -8 28 119 -141 59 -80 111 -146 116
-148 4 -2 8 -9 8 -16 0 -7 33 -57 74 -112 41 -54 73 -100 71 -102 -4 -4 -200
160 -226 189 -20 22 -64 35 -73 21 -3 -5 63 -67 147 -138 83 -70 208 -176 277
-234 68 -58 120 -98 115 -90 -5 8 -85 117 -178 243 -101 136 -175 227 -185
227 -13 0 -14 2 -4 8 14 9 -19 58 -203 302 -55 74 -138 186 -184 248 -46 61
-85 112 -88 112 -3 0 6 -15 19 -32 62 -83 118 -164 116 -169 -2 -3 3 -13 10
-22 10 -12 10 -17 1 -23 -8 -4 -9 -3 -5 4 4 7 3 12 -2 12 -10 0 -326 419 -320
425 9 9 182 65 186 60 3 -3 11 0 18 6 8 7 14 6 20 -2 4 -7 3 -10 -2 -7 -5 3
-15 0 -22 -8 -7 -8 -11 -14 -10 -14 15 1 193 62 373 128 316 116 889 326 963
352 34 13 61 24 60 25 -5 4 -1476 -163 -1493 -170 -9 -3 31 -9 48 -6 4 0 7 -5
7 -12 0 -7 -10 -13 -22 -13 -26 0 -128 -12 -170 -20 -23 -5 -28 -2 -28 15 0
16 50 308 94 548 1 7 5 15 8 18 8 8 0 -123 -13 -198 -6 -38 -8 -71 -5 -74 3
-4 6 -1 6 6 0 8 29 178 65 380 129 729 164 935 162 938 -2 1 -38 -80 -82 -180z
m-30 -257 c-13 -69 -38 -204 -55 -300 -34 -191 -47 -254 -49 -227 -1 9 -8 17
-17 17 -14 0 -14 1 0 16 9 8 15 23 15 32 -1 15 -2 15 -6 0 -2 -10 -9 -18 -15
-18 -6 0 -7 8 -3 18 10 25 10 23 1 75 -4 26 -11 45 -17 42 -5 -3 -6 1 -3 10 4
8 1 22 -5 29 -9 11 -9 15 1 19 10 4 10 8 -2 16 -8 6 -10 11 -4 11 6 0 23 30
38 68 47 115 139 323 141 320 2 -2 -8 -59 -20 -128z m-1362 -404 c20 -16 34
-33 30 -39 -3 -5 -1 -7 4 -4 12 8 36 -17 26 -26 -3 -4 -2 -7 4 -7 5 0 9 -13 8
-30 -1 -17 2 -27 8 -23 6 4 8 0 4 -10 -3 -10 -2 -17 4 -17 6 0 7 -4 4 -10 -11
-19 6 -32 23 -18 16 12 16 11 0 -7 -12 -15 -14 -25 -7 -40 17 -34 -37 34 -159
200 -151 205 -150 202 -61 125 41 -36 91 -78 112 -94z m151 -286 c10 -13 9
-13 -6 -1 -10 7 -18 21 -17 30 0 13 1 14 6 1 3 -8 11 -22 17 -30z m2349 -357
c4 -4 -109 -48 -250 -99 -142 -51 -370 -132 -508 -182 -137 -49 -255 -87 -262
-85 -7 3 -15 21 -19 41 -6 42 -38 158 -48 183 -9 20 -10 20 549 84 215 25 417
49 450 54 83 12 81 12 88 4z m-2206 -426 c1 -7 10 -41 22 -76 12 -35 21 -73
21 -85 0 -12 5 -27 11 -33 8 -8 5 -11 -12 -11 -13 -1 -244 -28 -514 -61 -269
-33 -491 -61 -492 -61 -2 0 -3 4 -3 9 0 5 12 12 27 16 15 3 147 49 293 102
146 52 328 117 405 145 77 27 155 55 174 62 38 14 67 11 68 -7z m88 -187 c3
-6 -1 -7 -9 -4 -18 7 -21 14 -7 14 6 0 13 -4 16 -10z m160 -836 c-3 -20 -2
-34 2 -31 5 3 10 -10 10 -29 1 -19 -3 -37 -8 -40 -5 -3 -9 -13 -9 -22 0 -14 2
-15 10 -2 11 19 18 11 26 -28 4 -22 3 -32 -5 -32 -7 0 -10 -4 -7 -8 3 -5 -21
-71 -54 -148 -33 -76 -59 -135 -60 -131 0 5 20 117 45 249 25 133 45 245 45
250 0 4 3 8 6 8 3 0 3 -16 -1 -36z"/>
<path d="M11241 5784 c0 -11 3 -14 6 -6 3 7 2 16 -1 19 -3 4 -6 -2 -5 -13z"/>
<path d="M12940 8829 c-80 -62 -101 -83 -38 -39 52 36 116 89 108 90 -3 0 -34
-23 -70 -51z"/>
<path d="M13460 8826 c0 -2 8 -10 18 -17 15 -13 16 -12 3 4 -13 16 -21 21 -21
13z"/>
<path d="M5059 8783 c-13 -16 -12 -17 4 -4 16 13 21 21 13 21 -2 0 -10 -8 -17
-17z"/>
<path d="M13500 8796 c0 -2 8 -10 18 -17 15 -13 16 -12 3 4 -13 16 -21 21 -21
13z"/>
<path d="M13080 8764 c-48 -27 -46 -27 13 -4 20 8 37 18 37 22 0 10 2 11 -50
-18z"/>
<path d="M5225 8750 c-74 -35 -66 -39 11 -5 31 14 58 25 60 25 1 0 5 -10 7
-22 4 -20 4 -19 6 5 1 34 -8 33 -84 -3z"/>
<path d="M5450 8769 c0 -5 5 -7 10 -4 6 3 10 8 10 11 0 2 -4 4 -10 4 -5 0 -10
-5 -10 -11z"/>
<path d="M13270 8769 c0 -5 4 -8 9 -5 5 3 39 -8 76 -24 38 -17 70 -29 72 -27
4 4 -135 67 -148 67 -5 0 -9 -5 -9 -11z"/>
<path d="M5500 8755 c14 -8 30 -14 35 -14 6 0 -1 6 -15 14 -14 8 -29 14 -35
14 -5 0 1 -6 15 -14z"/>
<path d="M13132 8720 c0 -19 2 -27 5 -17 2 9 2 25 0 35 -3 9 -5 1 -5 -18z"/>
<path d="M5442 8710 c0 -19 2 -27 5 -17 2 9 2 25 0 35 -3 9 -5 1 -5 -18z"/>
<path d="M5570 8725 c14 -8 30 -14 35 -14 6 0 -1 6 -15 14 -14 8 -29 14 -35
14 -5 0 1 -6 15 -14z"/>
<path d="M12990 8725 c-14 -8 -20 -14 -15 -14 6 0 21 6 35 14 14 8 21 14 15
14 -5 0 -21 -6 -35 -14z"/>
<path d="M13262 8705 c0 -16 2 -22 5 -12 2 9 2 23 0 30 -3 6 -5 -1 -5 -18z"/>
<path d="M5312 8680 c0 -19 2 -27 5 -17 2 9 2 25 0 35 -3 9 -5 1 -5 -18z"/>
<path d="M13142 8650 c0 -19 3 -57 8 -85 6 -40 7 -43 8 -15 0 19 -3 58 -8 85
-6 40 -7 43 -8 15z"/>
<path d="M5433 8635 c0 -22 2 -30 4 -17 2 12 2 30 0 40 -3 9 -5 -1 -4 -23z"/>
<path d="M13245 8575 c-4 -42 -5 -79 -2 -81 2 -3 8 29 12 71 4 42 5 79 2 81
-2 3 -8 -29 -12 -71z"/>
<path d="M5322 8600 c0 -19 2 -27 5 -17 2 9 2 25 0 35 -3 9 -5 1 -5 -18z"/>
<path d="M5423 8555 c0 -22 2 -30 4 -17 2 12 2 30 0 40 -3 9 -5 -1 -4 -23z"/>
<path d="M5333 8525 c0 -22 2 -30 4 -17 2 12 2 30 0 40 -3 9 -5 -1 -4 -23z"/>
<path d="M5413 8475 c0 -22 2 -30 4 -17 2 12 2 30 0 40 -3 9 -5 -1 -4 -23z"/>
<path d="M13163 8475 c0 -22 2 -30 4 -17 2 12 2 30 0 40 -3 9 -5 -1 -4 -23z"/>
<path d="M5342 8450 c-1 -14 7 -88 17 -165 14 -117 18 -133 24 -100 9 55 9 87
-2 81 -5 -3 -15 43 -23 102 -9 59 -16 96 -16 82z"/>
<path d="M13220 8365 c-6 -58 -16 -102 -21 -99 -10 6 -10 -35 0 -81 4 -21 12
17 25 123 10 84 16 155 13 158 -2 2 -10 -43 -17 -101z"/>
<path d="M5403 8395 c0 -22 2 -30 4 -17 2 12 2 30 0 40 -3 9 -5 -1 -4 -23z"/>
<path d="M13172 8405 c0 -16 3 -52 8 -80 6 -41 7 -44 8 -15 0 19 -3 55 -7 80
-6 33 -9 37 -9 15z"/>
<path d="M5393 8315 c0 -22 2 -30 4 -17 2 12 2 30 0 40 -3 9 -5 -1 -4 -23z"/>
<path d="M19606 7993 c-6 -14 -5 -15 5 -6 7 7 10 15 7 18 -3 3 -9 -2 -12 -12z"/>
<path d="M18790 7856 c27 -30 100 -91 100 -83 0 3 -28 29 -62 58 -35 29 -52
41 -38 25z"/>
<path d="M4111 7604 c0 -11 3 -14 6 -6 3 7 2 16 -1 19 -3 4 -6 -2 -5 -13z"/>
<path d="M11922 7515 c0 -16 2 -22 5 -12 2 9 2 23 0 30 -3 6 -5 -1 -5 -18z"/>
<path d="M11912 7460 c0 -14 2 -19 5 -12 2 6 2 18 0 25 -3 6 -5 1 -5 -13z"/>
<path d="M11901 7394 c0 -11 3 -14 6 -6 3 7 2 16 -1 19 -3 4 -6 -2 -5 -13z"/>
<path d="M11100 7306 c0 -2 8 -10 18 -17 15 -13 16 -12 3 4 -13 16 -21 21 -21
13z"/>
<path d="M4118 7283 c6 -2 18 -2 25 0 6 3 1 5 -13 5 -14 0 -19 -2 -12 -5z"/>
<path d="M11943 7283 c9 -2 25 -2 35 0 9 3 1 5 -18 5 -19 0 -27 -2 -17 -5z"/>
<path d="M19773 7283 c9 -2 23 -2 30 0 6 3 -1 5 -18 5 -16 0 -22 -2 -12 -5z"/>
<path d="M11145 7250 c10 -11 20 -20 23 -20 3 0 -3 9 -13 20 -10 11 -20 20
-23 20 -3 0 3 -9 13 -20z"/>
<path d="M11190 7190 c12 -16 24 -30 26 -30 3 0 -4 14 -16 30 -12 17 -24 30
-26 30 -3 0 4 -13 16 -30z"/>
<path d="M4210 6820 c12 -16 24 -30 26 -30 3 0 -4 14 -16 30 -12 17 -24 30
-26 30 -3 0 4 -13 16 -30z"/>
<path d="M19840 6846 c0 -2 8 -10 18 -17 15 -13 16 -12 3 4 -13 16 -21 21 -21
13z"/>
<path d="M679 6668 c-23 -35 -33 -55 -22 -45 20 17 20 16 22 -34 1 -29 4 -56
7 -60 3 -5 1 -9 -4 -9 -7 0 -5 -90 2 -97 1 -2 11 67 22 152 11 85 18 155 17
155 -1 0 -21 -28 -44 -62z"/>
<path d="M8510 6683 c-19 -25 -28 -43 -22 -39 13 8 15 -20 11 -139 -2 -38 -3
-90 -3 -115 -1 -34 -5 -45 -18 -48 -20 -4 -21 3 -9 86 7 51 0 79 -13 46 -3 -8
-10 -12 -16 -9 -5 3 -10 0 -10 -7 0 -9 -2 -10 -8 -1 -4 7 -17 -2 -36 -28 -31
-41 -44 -47 -64 -27 -9 9 -13 8 -18 -5 -3 -9 -19 -19 -35 -22 -16 -4 -29 -12
-29 -18 0 -6 -20 31 -45 82 -25 51 -45 95 -45 98 0 2 22 -11 49 -31 38 -28 50
-33 54 -22 6 14 -23 42 -145 139 -25 20 -49 37 -51 37 -3 0 28 -73 69 -162 41
-88 74 -162 74 -163 0 -1 -75 -33 -167 -71 l-167 -69 129 -13 c72 -6 153 -15
182 -18 l52 -5 -6 -45 -6 -44 51 0 c47 0 52 3 82 41 18 22 38 38 46 35 14 -5
75 21 86 38 4 6 5 19 2 29 -3 9 -1 17 5 17 6 0 11 -10 11 -21 0 -12 18 -62 41
-111 40 -91 44 -114 12 -86 -10 9 -27 20 -39 26 -17 9 -20 8 -19 -8 1 -11 39
-49 95 -91 51 -40 91 -68 89 -63 -34 88 -86 184 -99 184 -12 0 -12 2 -2 9 11
6 7 21 -18 71 -17 34 -30 63 -28 65 2 1 66 28 143 60 213 87 210 80 38 94 -81
6 -163 14 -182 17 l-33 5 7 47 c13 81 42 302 40 302 -1 0 -17 -21 -35 -47z
m-244 -520 c-2 -16 -5 -39 -6 -53 -1 -21 -3 -22 -9 -7 -9 24 -2 87 10 87 6 0
8 -12 5 -27z"/>
<path d="M16330 6668 c-23 -35 -32 -52 -20 -39 l21 25 -3 -150 c-2 -139 -7
-163 -31 -164 -5 0 -6 34 -2 75 l7 76 -26 -12 c-14 -7 -26 -16 -26 -21 0 -5
-4 -6 -10 -3 -5 3 -20 -10 -32 -30 -20 -30 -27 -34 -50 -29 -16 3 -28 1 -28
-4 0 -5 -14 -12 -31 -16 -20 -4 -28 -10 -23 -17 5 -8 3 -9 -5 -5 -13 8 -91
162 -91 178 0 5 17 -3 38 -19 56 -44 61 -46 59 -22 -1 18 -32 45 -185 162 -16
13 -9 -6 53 -138 26 -55 55 -118 65 -141 l18 -41 -166 -69 -167 -69 130 -12
c72 -7 153 -16 182 -19 l52 -5 -6 -45 c-4 -28 -2 -44 5 -44 6 0 13 6 15 13 4
10 6 10 6 0 1 -8 15 -13 37 -13 21 0 33 4 29 10 -3 6 0 10 7 10 7 0 22 14 33
30 22 33 34 37 54 18 11 -11 13 -10 8 3 -4 12 5 20 34 29 33 11 38 16 33 37
-4 14 -2 23 5 23 6 0 11 -12 11 -27 0 -16 12 -53 27 -83 23 -48 52 -119 53
-128 0 -2 -15 8 -32 21 -51 37 -59 40 -51 21 4 -12 3 -15 -5 -10 -44 27 60
-60 175 -147 7 -5 -6 31 -28 79 -22 49 -48 95 -57 102 -9 6 -11 12 -4 12 6 0
-1 27 -19 66 -16 37 -28 68 -26 70 2 2 52 23 112 48 61 24 135 55 165 68 l55
24 -178 16 c-97 8 -179 17 -182 19 -2 3 6 83 18 177 13 95 22 172 20 172 -1 0
-21 -28 -43 -62z m-237 -515 c-8 -57 -23 -63 -20 -10 1 28 7 47 14 47 8 0 10
-12 6 -37z"/>
<path d="M19930 6726 c0 -2 8 -10 18 -17 15 -13 16 -12 3 4 -13 16 -21 21 -21
13z"/>
<path d="M3492 6700 c0 -14 2 -19 5 -12 2 6 2 18 0 25 -3 6 -5 1 -5 -13z"/>
<path d="M19142 6700 c0 -14 2 -19 5 -12 2 6 2 18 0 25 -3 6 -5 1 -5 -13z"/>
<path d="M230 6658 c0 -3 23 -54 51 -114 28 -60 61 -132 74 -160 l22 -51 -166
-69 -166 -69 130 -12 c72 -7 153 -16 182 -19 l52 -5 -6 -45 -6 -44 53 0 c29 0
51 2 48 5 -3 3 11 22 29 42 28 29 38 34 52 26 12 -8 20 -5 35 12 11 13 25 21
32 18 7 -2 15 1 20 8 4 7 3 10 -3 6 -6 -4 -8 3 -5 18 6 35 22 31 22 -5 0 -45
46 -130 70 -130 18 0 17 4 -11 66 -16 37 -28 68 -26 70 2 2 52 23 112 48 61
24 135 55 165 68 l55 24 -155 13 c-191 15 -208 18 -213 39 -3 9 -4 2 -4 -17 2
-26 -2 -34 -16 -37 -17 -2 -18 3 -12 68 7 66 6 71 -11 64 -10 -4 -21 -1 -26 6
-5 9 -8 6 -8 -9 0 -12 -5 -25 -12 -29 -7 -5 -9 -2 -4 7 4 8 -7 -3 -24 -23 -26
-30 -37 -37 -56 -32 -15 4 -24 2 -24 -5 0 -6 -7 -11 -15 -11 -8 0 -15 -4 -15
-8 0 -4 -9 -8 -20 -9 -16 -1 -29 16 -60 77 -22 44 -40 85 -40 91 0 6 17 -2 38
-18 56 -44 61 -46 59 -22 -1 18 -34 47 -184 162 -7 5 -13 7 -13 5z m213 -510
c-9 -67 -19 -74 -19 -13 1 35 5 55 12 55 8 0 10 -14 7 -42z"/>
<path d="M3482 6640 c0 -14 2 -19 5 -12 2 6 2 18 0 25 -3 6 -5 1 -5 -13z"/>
<path d="M19132 6640 c0 -14 2 -19 5 -12 2 6 2 18 0 25 -3 6 -5 1 -5 -13z"/>
<path d="M3472 6585 c0 -16 2 -22 5 -12 2 9 2 23 0 30 -3 6 -5 -1 -5 -18z"/>
<path d="M19122 6590 c0 -14 2 -19 5 -12 2 6 2 18 0 25 -3 6 -5 1 -5 -13z"/>
<path d="M11292 6550 c0 -14 2 -19 5 -12 2 6 2 18 0 25 -3 6 -5 1 -5 -13z"/>
<path d="M11446 6095 c-9 -26 -7 -32 5 -12 6 10 9 21 6 23 -2 3 -7 -2 -11 -11z"/>
<path d="M399 6057 c-3 -5 -37 -252 -35 -255 2 -1 18 21 37 50 32 48 40 88 19
88 -10 0 0 93 12 101 5 3 0 9 -11 12 -12 3 -21 4 -22 4z"/>
<path d="M742 6044 c3 -11 9 -28 14 -39 7 -18 4 -17 -27 6 -47 35 -64 45 -55
31 3 -5 1 -12 -5 -14 -8 -3 71 -70 178 -151 7 -5 -7 33 -31 84 -27 61 -49 95
-61 98 -13 2 -17 -2 -13 -15z"/>
<path d="M8219 6058 c-4 -9 -35 -254 -33 -256 2 -3 68 92 89 128 7 13 6 13 -7
2 -13 -10 -17 -10 -23 5 -15 35 -1 103 22 103 9 0 14 2 12 4 -6 5 -59 17 -60
14z"/>
<path d="M16049 6058 c-4 -9 -36 -253 -34 -256 2 -2 17 20 71 103 10 16 14 26
7 22 -19 -12 -28 14 -24 69 1 30 -2 55 -8 58 -6 4 -12 6 -12 4z"/>
<path d="M19021 6009 c-27 -141 -151 -852 -148 -855 1 -2 45 95 97 214 51 119
131 302 177 406 46 104 83 191 83 193 0 3 -8 -5 -18 -17 -15 -18 -19 -20 -19
-7 0 10 3 17 7 17 3 0 7 14 8 32 2 17 8 38 14 45 8 11 -3 13 -60 13 -38 0 -83
3 -100 6 -30 6 -30 5 -41 -47z m62 -176 c2 -34 4 -39 16 -30 11 10 13 8 6 -12
-16 -50 -42 -101 -49 -94 -4 4 -5 1 -1 -7 3 -8 -15 -60 -41 -115 -25 -55 -43
-86 -41 -70 3 17 22 126 43 243 l38 213 13 -43 c7 -24 14 -62 16 -85z"/>
<path d="M5645 4993 c-21 -32 -32 -53 -24 -46 13 10 15 -8 14 -138 0 -135 -2
-149 -17 -149 -16 0 -17 8 -11 78 6 76 5 77 -13 57 -11 -11 -26 -21 -34 -23
-8 -2 -29 -20 -46 -40 l-32 -37 -23 20 c-22 19 -23 19 -9 1 14 -18 13 -19 -2
-13 -9 3 -18 2 -20 -3 -2 -5 -10 -10 -18 -12 -8 -2 -18 -7 -22 -13 -4 -5 -9
-7 -11 -5 -11 12 -88 173 -84 176 2 2 26 -12 52 -33 28 -21 46 -30 42 -20 -3
8 -2 17 3 19 5 2 -38 40 -96 85 -57 46 -104 81 -104 79 0 -2 32 -73 70 -158
39 -84 72 -157 73 -162 1 -5 -69 -39 -155 -75 -86 -36 -159 -68 -162 -71 -3
-3 5 -6 17 -7 73 -5 314 -25 323 -28 8 -2 4 -56 -12 -177 -12 -95 -21 -174
-20 -175 1 -2 26 32 55 75 33 48 43 68 26 52 -18 -17 -24 -20 -19 -7 3 10 1
17 -5 17 -6 0 -9 10 -7 23 3 12 8 39 11 61 3 21 9 36 11 33 3 -3 17 1 31 8 15
8 31 11 36 8 6 -4 8 1 4 11 -4 9 -3 15 2 11 5 -3 19 9 31 25 18 25 25 29 36
19 11 -9 19 -8 34 6 10 9 24 14 29 10 6 -3 11 1 11 9 0 9 4 16 9 16 5 0 7 10
3 22 -3 14 -2 19 6 14 7 -4 12 -16 12 -27 0 -11 18 -56 41 -100 22 -45 38 -83
35 -86 -3 -3 -19 5 -35 17 -29 20 -51 20 -51 1 0 -7 76 -68 172 -139 20 -14
13 3 -79 197 -29 63 -50 118 -46 121 5 4 79 35 165 71 86 35 156 65 155 66 -2
1 -81 9 -177 18 -96 9 -177 18 -178 20 -3 3 12 125 37 303 5 28 7 52 6 52 -1
0 -19 -26 -40 -57z m-243 -537 c-2 -25 -8 -46 -13 -46 -5 0 -8 17 -5 38 3 20
5 43 5 50 1 7 4 11 9 8 4 -2 6 -25 4 -50z"/>
<path d="M13470 4996 c-31 -46 -37 -62 -20 -51 6 3 10 -4 11 -17 0 -23 0 -246
-1 -260 0 -5 -9 -8 -20 -8 -19 0 -20 5 -14 58 3 31 7 63 10 70 4 15 4 15 -39
-3 -20 -8 -41 -23 -46 -32 -27 -46 -39 -55 -60 -44 -12 7 -22 7 -26 2 -3 -6
-19 -16 -35 -24 -23 -12 -31 -12 -39 -3 -15 18 -80 160 -76 165 2 2 21 -10 42
-26 55 -43 60 -45 58 -22 -1 13 -37 49 -101 99 -54 43 -100 77 -102 76 -1 -2
32 -76 74 -165 42 -89 75 -163 73 -165 -2 -1 -74 -31 -159 -66 -85 -35 -159
-68 -165 -73 -7 -7 -7 -8 0 -5 6 3 64 -1 130 -8 66 -7 144 -13 173 -13 63 -1
61 13 29 -208 -12 -84 -22 -153 -21 -153 3 0 67 89 79 109 5 9 4 12 -3 7 -15
-9 -25 45 -16 91 5 21 7 42 6 46 -1 5 1 6 6 3 5 -3 21 1 36 9 14 8 24 10 21 5
-16 -26 5 -5 35 34 33 44 33 45 58 28 15 -9 23 -12 20 -6 -8 12 20 39 51 49
18 5 20 9 10 21 -9 11 -9 18 -1 26 9 9 12 7 13 -8 1 -40 10 -66 45 -135 19
-39 33 -73 30 -76 -3 -3 -17 4 -32 16 -32 25 -44 27 -44 6 0 -13 171 -158 178
-151 1 2 -22 54 -52 117 -29 63 -63 135 -74 162 l-21 47 32 13 c140 56 295
122 293 124 -1 2 -78 10 -171 18 -93 9 -171 18 -174 21 -3 2 1 48 7 102 7 53
15 124 18 157 3 33 7 66 9 73 8 23 -4 12 -35 -32z m-249 -551 l-9 -40 -1 46
c-1 25 2 49 7 53 12 12 13 -16 3 -59z"/>
<path d="M6482 2219 c-18 -27 -27 -47 -22 -44 10 6 13 -14 10 -75 -9 -212 0
-216 25 -10 9 74 19 145 22 158 8 34 -1 27 -35 -29z"/>
<path d="M14303 2220 c-18 -27 -27 -47 -20 -44 10 4 13 -14 10 -83 -1 -48 -5
-107 -8 -131 -2 -24 0 -52 5 -63 9 -16 7 -19 -15 -19 -20 0 -25 4 -21 18 10
33 10 117 1 116 -23 -1 -65 -24 -74 -41 -28 -48 -40 -57 -56 -43 -10 8 -19 10
-23 4 -8 -10 -58 -44 -67 -44 -2 0 -25 41 -50 90 -25 50 -42 90 -39 90 4 0 21
-10 38 -23 45 -34 60 -42 52 -29 -9 15 -1 15 25 2 10 -6 19 -9 19 -7 0 3 -119
97 -227 180 -7 5 20 -60 58 -145 39 -84 72 -159 72 -167 1 -9 -55 -38 -158
-82 -88 -38 -158 -69 -155 -70 3 0 12 -2 20 -3 8 -2 83 -9 165 -16 83 -7 153
-16 158 -19 4 -4 -2 -76 -14 -160 -11 -84 -19 -160 -17 -168 2 -10 23 14 52
58 32 49 40 66 23 51 l-25 -23 2 48 c5 117 7 129 16 108 5 -11 9 -15 9 -8 1 7
8 10 16 7 8 -4 15 -1 15 6 0 7 6 10 14 7 9 -4 25 9 41 34 30 42 35 45 52 28 8
-8 17 -5 32 10 12 12 25 21 30 21 12 0 23 29 15 41 -3 5 1 9 9 9 10 0 13 -7
10 -18 -2 -10 16 -60 41 -110 24 -51 40 -92 35 -92 -6 0 -25 11 -44 25 -24 19
-34 22 -37 13 -4 -10 -8 -10 -21 1 -10 7 -17 11 -17 9 0 -8 210 -171 215 -167
2 3 -29 75 -70 162 l-74 158 25 9 c13 5 83 34 154 65 71 30 135 55 142 55 9 1
9 3 -2 9 -8 5 -90 14 -183 21 l-167 13 5 31 c9 52 44 320 42 322 -1 2 -17 -20
-34 -46z m-246 -525 c-6 -48 -17 -57 -17 -13 0 31 6 48 17 48 2 0 2 -16 0 -35z"/>
<path d="M6020 2197 c0 -3 33 -76 74 -163 41 -88 71 -162 68 -165 -4 -3 -75
-35 -159 -70 -83 -35 -150 -66 -148 -69 2 -4 79 -12 170 -20 100 -8 168 -18
171 -24 2 -6 -7 -85 -20 -176 -13 -91 -22 -166 -21 -168 1 -1 18 22 38 52 20
30 33 57 28 60 -5 3 -9 35 -9 71 0 36 4 63 9 59 5 -3 9 0 9 6 0 7 6 10 12 8
15 -5 28 4 79 56 32 34 40 38 53 27 11 -9 16 -10 16 -2 0 6 5 11 10 11 6 0 21
9 32 20 12 11 26 16 30 12 14 -14 89 -175 84 -180 -3 -3 -21 7 -41 22 -19 15
-35 22 -35 15 0 -6 -7 -8 -16 -5 -29 11 -4 -12 96 -88 99 -77 109 -82 90 -48
-28 50 -139 295 -136 301 2 3 74 35 160 70 85 36 153 67 150 70 -6 6 -238 29
-301 30 -32 1 -43 -3 -43 -14 0 -8 -9 -15 -20 -15 -19 0 -20 4 -14 83 l7 82
-32 -35 c-22 -25 -30 -29 -26 -15 5 16 3 15 -12 -5 -47 -63 -60 -75 -75 -62
-11 9 -17 9 -26 0 -7 -7 -12 -8 -12 -2 -1 5 -8 -2 -16 -16 -8 -14 -13 -17 -10
-7 8 25 -3 21 -13 -5 -7 -20 -14 -11 -55 71 -26 51 -45 95 -42 98 3 3 22 -8
43 -24 55 -43 64 -47 56 -27 -5 13 -3 15 8 9 11 -7 12 -6 2 7 -15 17 -213 171
-213 165z m450 -447 c0 -5 -4 -10 -10 -10 -5 0 -10 5 -10 10 0 6 5 10 10 10 6
0 10 -4 10 -10z m-234 -42 c-3 -13 -6 -34 -7 -48 l-1 -25 -7 25 c-9 31 -2 70
11 70 6 0 8 -10 4 -22z"/>
<path d="M1451 2012 c-7 -68 -11 -125 -8 -128 2 -3 8 28 12 68 6 56 10 67 15
48 8 -24 8 -24 8 5 0 17 -3 53 -7 80 -6 46 -8 41 -20 -73z"/>
<path d="M17111 2100 c-5 -55 -7 -139 -3 -110 5 33 5 34 12 10 7 -21 8 -18 8
15 0 41 -15 112 -17 85z"/>
<path d="M9287 2090 c-9 -24 -30 -220 -24 -226 3 -3 8 29 12 70 4 42 10 76 14
76 4 0 18 -89 31 -197 14 -109 26 -189 27 -178 5 32 -54 472 -60 455z"/>
<path d="M17133 1935 c0 -22 2 -30 4 -17 2 12 2 30 0 40 -3 9 -5 -1 -4 -23z"/>
<path d="M1482 1930 c0 -19 2 -27 5 -17 2 9 2 25 0 35 -3 9 -5 1 -5 -18z"/>
<path d="M17093 1905 c0 -22 2 -30 4 -17 2 12 2 30 0 40 -3 9 -5 -1 -4 -23z"/>
<path d="M1492 1850 c0 -19 2 -27 5 -17 2 9 2 25 0 35 -3 9 -5 1 -5 -18z"/>
<path d="M17142 1850 c0 -19 2 -27 5 -17 2 9 2 25 0 35 -3 9 -5 1 -5 -18z"/>
<path d="M1432 1830 c0 -19 2 -27 5 -17 2 9 2 25 0 35 -3 9 -5 1 -5 -18z"/>
<path d="M9253 1815 c0 -22 2 -30 4 -17 2 12 2 30 0 40 -3 9 -5 -1 -4 -23z"/>
<path d="M17082 1820 c0 -19 2 -27 5 -17 2 9 2 25 0 35 -3 9 -5 1 -5 -18z"/>
<path d="M1503 1775 c0 -22 2 -30 4 -17 2 12 2 30 0 40 -3 9 -5 -1 -4 -23z"/>
<path d="M17153 1775 c0 -22 2 -30 4 -17 2 12 2 30 0 40 -3 9 -5 -1 -4 -23z"/>
<path d="M1422 1740 c0 -19 2 -27 5 -17 2 9 2 25 0 35 -3 9 -5 1 -5 -18z"/>
<path d="M9243 1735 c0 -22 2 -30 4 -17 2 12 2 30 0 40 -3 9 -5 -1 -4 -23z"/>
<path d="M17072 1735 c0 -16 2 -22 5 -12 2 9 2 23 0 30 -3 6 -5 -1 -5 -18z"/>
<path d="M1513 1695 c0 -22 2 -30 4 -17 2 12 2 30 0 40 -3 9 -5 -1 -4 -23z"/>
<path d="M17163 1695 c0 -22 2 -30 4 -17 2 12 2 30 0 40 -3 9 -5 -1 -4 -23z"/>
<path d="M1412 1660 c0 -19 2 -27 5 -17 2 9 2 25 0 35 -3 9 -5 1 -5 -18z"/>
<path d="M9233 1655 c0 -22 2 -30 4 -17 2 12 2 30 0 40 -3 9 -5 -1 -4 -23z"/>
<path d="M17062 1655 c0 -16 2 -22 5 -12 2 9 2 23 0 30 -3 6 -5 -1 -5 -18z"/>
<path d="M1522 1610 c0 -19 2 -27 5 -17 2 9 2 25 0 35 -3 9 -5 1 -5 -18z"/>
<path d="M17172 1610 c0 -19 2 -27 5 -17 2 9 2 25 0 35 -3 9 -5 1 -5 -18z"/>
<path d="M1402 1580 c0 -19 2 -27 5 -17 2 9 2 25 0 35 -3 9 -5 1 -5 -18z"/>
<path d="M9223 1575 c0 -22 2 -30 4 -17 2 12 2 30 0 40 -3 9 -5 -1 -4 -23z"/>
<path d="M9353 1575 c0 -22 2 -30 4 -17 2 12 2 30 0 40 -3 9 -5 -1 -4 -23z"/>
<path d="M17052 1580 c0 -19 2 -27 5 -17 2 9 2 25 0 35 -3 9 -5 1 -5 -18z"/>
<path d="M9010 1575 c14 -8 30 -14 35 -14 6 0 -1 6 -15 14 -14 8 -29 14 -35
14 -5 0 1 -6 15 -14z"/>
<path d="M9550 1575 c-14 -8 -20 -14 -15 -14 6 0 21 6 35 14 14 8 21 14 15 14
-5 0 -21 -6 -35 -14z"/>
<path d="M17390 1580 c-8 -5 -10 -10 -5 -10 6 0 17 5 25 10 8 5 11 10 5 10 -5
0 -17 -5 -25 -10z"/>
<path d="M1210 1565 c14 -8 30 -14 35 -14 6 0 -1 6 -15 14 -14 8 -29 14 -35
14 -5 0 1 -6 15 -14z"/>
<path d="M16860 1565 c14 -8 30 -14 35 -14 6 0 -1 6 -15 14 -14 8 -29 14 -35
14 -5 0 1 -6 15 -14z"/>
<path d="M1534 1536 c1 -26 6 -41 16 -43 10 -3 11 -2 3 4 -6 4 -13 24 -16 43
-4 34 -4 33 -3 -4z"/>
<path d="M1635 1535 c-38 -18 -65 -33 -60 -33 6 -1 42 14 80 33 39 18 66 33
60 33 -5 1 -41 -14 -80 -33z"/>
<path d="M17181 1548 c-1 -32 8 -58 21 -58 7 0 7 4 0 13 -6 6 -12 26 -15 42
-4 29 -4 29 -6 3z"/>
<path d="M17285 1535 c-38 -18 -65 -34 -60 -34 6 0 42 15 80 34 39 18 66 33
60 33 -5 1 -41 -14 -80 -33z"/>
<path d="M9080 1545 c14 -8 30 -14 35 -14 6 0 -1 6 -15 14 -14 8 -29 14 -35
14 -5 0 1 -6 15 -14z"/>
<path d="M9445 1530 c-72 -34 -72 -34 -78 -12 -4 13 -5 11 -6 -5 0 -13 5 -23
12 -22 15 1 156 67 142 67 -5 0 -37 -12 -70 -28z"/>
<path d="M1261 1546 c2 -3 35 -18 72 -35 l67 -30 -1 27 c-1 17 -3 20 -6 10 -6
-22 -2 -23 -69 7 -54 24 -72 30 -63 21z"/>
<path d="M16930 1535 c14 -8 30 -14 35 -14 6 0 -1 6 -15 14 -14 8 -29 14 -35
14 -5 0 1 -6 15 -14z"/>
<path d="M9150 1515 c14 -8 30 -14 35 -14 6 0 -1 6 -15 14 -14 8 -29 14 -35
14 -5 0 1 -6 15 -14z"/>
<path d="M9207 1510 c-3 -11 -1 -20 4 -20 5 0 9 9 9 20 0 11 -2 20 -4 20 -2 0
-6 -9 -9 -20z"/>
<path d="M16981 1516 c2 -2 19 -11 37 -20 31 -16 32 -16 32 6 0 17 -3 19 -9 9
-6 -10 -13 -11 -29 -2 -20 10 -40 15 -31 7z"/>
<path d="M8990 1477 c0 -3 32 -28 70 -57 39 -29 70 -56 70 -62 0 -5 5 -6 10
-3 6 4 -8 21 -32 39 -24 18 -60 45 -80 60 -21 16 -38 26 -38 23z"/>
<path d="M1255 1408 c16 -15 33 -28 38 -28 4 0 7 -7 7 -15 0 -8 -3 -15 -7 -15
-5 0 -28 -19 -53 -41 l-45 -40 51 36 c79 54 80 58 37 90 -54 40 -64 44 -28 13z"/>
<path d="M9473 1397 l-41 -33 31 -25 c71 -55 107 -81 107 -76 0 3 -28 27 -61
53 l-61 47 38 33 c51 43 41 44 -13 1z"/>
<path d="M16923 1396 c15 -14 27 -29 27 -34 0 -5 -20 -23 -45 -41 -24 -17 -47
-37 -51 -43 -7 -10 32 16 100 67 21 16 16 27 -27 55 l-32 22 28 -26z"/>
<path d="M1636 1387 l-28 -23 58 -43 c52 -37 54 -38 19 -7 -22 20 -43 36 -47
36 -16 0 -7 22 15 41 32 26 18 23 -17 -4z"/>
<path d="M17286 1387 l-28 -23 58 -43 c33 -23 47 -31 32 -18 -15 14 -37 32
-49 41 l-23 16 24 25 c29 31 24 32 -14 2z"/>
<path d="M398 1261 c-67 -158 -218 -505 -254 -584 -19 -44 -39 -90 -45 -103
-13 -37 6 -20 22 18 13 32 13 32 19 8 4 -14 3 -27 -2 -30 -4 -3 -9 -15 -11
-25 -2 -11 -22 -56 -43 -100 l-39 -80 -3 -183 -3 -182 60 0 60 0 10 38 c11 44
34 172 34 189 0 7 4 10 9 7 5 -3 8 -13 7 -22 -2 -25 0 -46 5 -41 2 2 47 245
100 539 53 294 101 557 107 584 5 27 8 50 7 51 -2 2 -20 -36 -40 -84z m-82
-392 c-13 -74 -39 -216 -57 -317 -18 -100 -36 -182 -39 -182 -4 0 -15 37 -24
83 -10 45 -21 93 -24 107 -10 48 -2 77 71 245 40 94 77 179 80 189 18 47 15
-2 -7 -125z"/>
<path d="M9063 1309 c-29 -22 -53 -42 -53 -45 0 -7 88 56 102 73 17 21 6 15
-49 -28z"/>
<path d="M16080 1342 c0 -10 -98 -238 -287 -667 -89 -203 -97 -225 -43 -122
22 42 42 77 44 77 2 0 10 -8 17 -17 13 -17 13 -17 -5 -3 -18 14 -19 13 -13 -2
3 -10 2 -18 -3 -18 -6 0 -9 -3 -8 -7 3 -14 -19 -76 -56 -160 l-36 -81 0 -172
0 -171 62 3 63 3 20 118 c11 70 24 117 31 117 6 0 10 -11 9 -25 -2 -14 0 -25
5 -25 4 0 10 24 13 53 5 42 147 835 187 1046 5 30 8 57 5 59 -3 3 -5 0 -5 -6z
m-136 -598 c-25 -143 -47 -263 -48 -269 -2 -5 -6 -31 -11 -57 -4 -27 -11 -48
-15 -48 -4 0 -15 42 -25 93 -10 50 -22 97 -27 104 -5 7 -6 17 -2 24 4 6 8 27
9 46 1 19 6 38 12 41 5 4 15 22 21 40 19 57 125 293 129 289 2 -3 -17 -121
-43 -263z"/>
<path d="M8195 1202 c-32 -75 -88 -202 -123 -282 -76 -173 -162 -383 -158
-387 1 -2 11 15 22 36 20 42 28 43 44 8 10 -20 10 -20 -3 -5 -12 16 -17 9 -46
-66 -17 -46 -72 -175 -121 -287 -50 -112 -90 -207 -90 -211 0 -4 61 -8 135 -8
74 0 135 3 135 8 1 55 40 233 50 227 8 -5 7 -21 -11 -138 -6 -38 -9 -70 -7
-73 3 -2 10 24 16 58 6 35 44 252 86 483 88 493 136 769 133 772 -2 1 -29 -60
-62 -135z m-59 -343 c-21 -117 -42 -232 -50 -279 -1 -8 -11 -62 -21 -119 -18
-95 -20 -101 -29 -70 -5 19 -9 51 -9 72 -1 20 -4 37 -8 37 -8 0 -25 87 -21
103 1 4 -4 7 -10 7 -9 0 -8 4 2 10 8 5 12 10 9 10 -6 0 42 120 134 334 12 27
23 44 24 39 2 -6 -7 -71 -21 -144z"/>
<path d="M1730 1276 c0 -2 8 -10 18 -17 15 -13 16 -12 3 4 -13 16 -21 21 -21
13z"/>
<path d="M17380 1276 c0 -2 8 -10 18 -17 15 -13 16 -12 3 4 -13 16 -21 21 -21
13z"/>
<path d="M16819 1253 c-13 -16 -12 -17 4 -4 16 13 21 21 13 21 -2 0 -10 -8
-17 -17z"/>
<path d="M1327 1213 c-37 -14 -66 -27 -64 -30 3 -2 28 5 56 17 63 24 68 25 74
3 3 -11 5 -7 6 10 0 15 0 27 -1 26 -2 0 -34 -12 -71 -26z"/>
<path d="M1534 1215 c-3 -13 -4 -32 -1 -42 3 -10 5 -5 6 14 1 21 7 33 19 35
16 3 16 4 0 10 -13 6 -19 1 -24 -17z"/>
<path d="M9202 1231 c-11 -7 -11 -9 2 -14 10 -4 16 -1 16 8 0 17 -1 17 -18 6z"/>
<path d="M9360 1218 c0 -12 3 -17 8 -12 4 5 11 12 15 15 5 3 2 9 -7 12 -12 5
-16 0 -16 -15z"/>
<path d="M16992 1219 c-29 -12 -51 -23 -49 -25 2 -3 24 3 47 12 36 14 43 15
51 3 7 -11 9 -8 9 9 0 12 -1 22 -2 21 -2 0 -27 -9 -56 -20z"/>
<path d="M17184 1215 c-3 -13 -4 -32 -1 -42 3 -10 5 -5 6 14 1 21 7 33 19 35
16 3 16 4 0 10 -13 6 -19 1 -24 -17z"/>
<path d="M1590 1210 c8 -5 20 -10 25 -10 6 0 3 5 -5 10 -8 5 -19 10 -25 10 -5
0 -3 -5 5 -10z"/>
<path d="M9410 1210 c8 -5 20 -10 25 -10 6 0 3 5 -5 10 -8 5 -19 10 -25 10 -5
0 -3 -5 5 -10z"/>
<path d="M17240 1210 c8 -5 20 -10 25 -10 6 0 3 5 -5 10 -8 5 -19 10 -25 10
-5 0 -3 -5 5 -10z"/>
<path d="M9120 1200 c-8 -5 -10 -10 -5 -10 6 0 17 5 25 10 8 5 11 10 5 10 -5
0 -17 -5 -25 -10z"/>
<path d="M9070 1180 c-8 -5 -10 -10 -5 -10 6 0 17 5 25 10 8 5 11 10 5 10 -5
0 -17 -5 -25 -10z"/>
<path d="M9223 1155 c0 -22 2 -30 4 -17 2 12 2 30 0 40 -3 9 -5 -1 -4 -23z"/>
<path d="M1402 1150 c0 -19 2 -27 5 -17 2 9 2 25 0 35 -3 9 -5 1 -5 -18z"/>
<path d="M9352 1150 c0 -19 2 -27 5 -17 2 9 2 25 0 35 -3 9 -5 1 -5 -18z"/>
<path d="M17052 1150 c0 -19 2 -27 5 -17 2 9 2 25 0 35 -3 9 -5 1 -5 -18z"/>
<path d="M1200 1160 c-8 -5 -10 -10 -5 -10 6 0 17 5 25 10 8 5 11 10 5 10 -5
0 -17 -5 -25 -10z"/>
<path d="M16850 1160 c-8 -5 -10 -10 -5 -10 6 0 17 5 25 10 8 5 11 10 5 10 -5
0 -17 -5 -25 -10z"/>
<path d="M9000 1150 c-8 -5 -10 -10 -5 -10 6 0 17 5 25 10 8 5 11 10 5 10 -5
0 -17 -5 -25 -10z"/>
<path d="M1522 1110 c0 -19 2 -27 5 -17 2 9 2 25 0 35 -3 9 -5 1 -5 -18z"/>
<path d="M17172 1110 c0 -19 2 -27 5 -17 2 9 2 25 0 35 -3 9 -5 1 -5 -18z"/>
<path d="M9233 1075 c0 -22 2 -30 4 -17 2 12 2 30 0 40 -3 9 -5 -1 -4 -23z"/>
<path d="M1413 1065 c0 -22 2 -30 4 -17 2 12 2 30 0 40 -3 9 -5 -1 -4 -23z"/>
<path d="M9342 1070 c0 -19 2 -27 5 -17 2 9 2 25 0 35 -3 9 -5 1 -5 -18z"/>
<path d="M17062 1070 c0 -19 2 -27 5 -17 2 9 2 25 0 35 -3 9 -5 1 -5 -18z"/>
<path d="M1512 1030 c0 -19 2 -27 5 -17 2 9 2 25 0 35 -3 9 -5 1 -5 -18z"/>
<path d="M17163 1025 c0 -22 2 -30 4 -17 2 12 2 30 0 40 -3 9 -5 -1 -4 -23z"/>
<path d="M9243 995 c0 -22 2 -30 4 -17 2 12 2 30 0 40 -3 9 -5 -1 -4 -23z"/>
<path d="M9332 990 c0 -19 2 -27 5 -17 2 9 2 25 0 35 -3 9 -5 1 -5 -18z"/>
<path d="M17072 995 c0 -16 2 -22 5 -12 2 9 2 23 0 30 -3 6 -5 -1 -5 -18z"/>
<path d="M1422 985 c0 -16 2 -22 5 -12 2 9 2 23 0 30 -3 6 -5 -1 -5 -18z"/>
<path d="M1502 950 c0 -19 2 -27 5 -17 2 9 2 25 0 35 -3 9 -5 1 -5 -18z"/>
<path d="M17152 950 c0 -19 2 -27 5 -17 2 9 2 25 0 35 -3 9 -5 1 -5 -18z"/>
<path d="M9253 915 c0 -22 2 -30 4 -17 2 12 2 30 0 40 -3 9 -5 -1 -4 -23z"/>
<path d="M9323 915 c0 -22 2 -30 4 -17 2 12 2 30 0 40 -3 9 -5 -1 -4 -23z"/>
<path d="M17082 910 c0 -19 2 -27 5 -17 2 9 2 25 0 35 -3 9 -5 1 -5 -18z"/>
<path d="M1432 905 c0 -16 2 -22 5 -12 2 9 2 23 0 30 -3 6 -5 -1 -5 -18z"/>
<path d="M6356 899 c4 -8 82 -115 174 -239 91 -124 237 -323 325 -442 l160
-218 173 0 c94 0 172 2 172 4 0 2 -39 37 -87 77 -49 41 -96 80 -105 89 -9 8
-41 35 -71 60 -55 45 -94 96 -83 107 3 4 6 2 6 -4 0 -6 19 -23 43 -38 23 -15
38 -23 32 -17 -11 11 -182 157 -356 303 -63 53 -176 149 -253 214 -76 64 -135
111 -130 104z m381 -375 c17 -17 34 -30 36 -28 2 2 19 -12 38 -32 19 -19 27
-33 19 -31 -8 2 -12 2 -7 0 4 -3 5 -8 2 -13 -3 -4 4 -6 15 -3 20 5 50 -12 50
-28 0 -16 -18 -9 -23 9 -3 9 -4 -5 -2 -33 3 -58 21 -102 44 -109 9 -3 7 -4 -5
-3 -19 2 -106 111 -308 387 -14 19 98 -73 141 -116z m168 -194 c3 -6 -1 -7 -9
-4 -18 7 -21 14 -7 14 6 0 13 -4 16 -10z"/>
<path d="M14198 870 c18 -25 169 -230 335 -455 l303 -410 178 -3 178 -2 -133
112 c-153 130 -184 158 -230 213 -36 42 -34 41 46 -19 l50 -38 -40 37 c-34 32
-292 251 -630 535 -87 73 -89 74 -57 30z m319 -306 c48 -42 100 -86 115 -97
26 -19 54 -74 43 -85 -3 -3 -5 -1 -5 4 0 6 -7 19 -15 30 -14 17 -14 15 0 -13
8 -18 20 -33 25 -33 6 0 10 -12 10 -26 0 -14 5 -34 11 -45 6 -11 9 -25 7 -31
-4 -10 -42 38 -231 295 -32 42 -56 77 -53 77 3 0 45 -34 93 -76z"/>
<path d="M1492 870 c0 -19 2 -27 5 -17 2 9 2 25 0 35 -3 9 -5 1 -5 -18z"/>
<path d="M17142 870 c0 -19 2 -27 5 -17 2 9 2 25 0 35 -3 9 -5 1 -5 -18z"/>
<path d="M9261 855 c-2 -34 22 -225 29 -225 8 0 35 229 27 236 -2 3 -8 -29
-12 -71 -4 -41 -10 -75 -15 -75 -4 0 -12 35 -17 78 -6 42 -11 68 -12 57z"/>
<path d="M1443 815 c0 -22 2 -30 4 -17 2 12 2 30 0 40 -3 9 -5 -1 -4 -23z"/>
<path d="M17092 820 c0 -19 2 -27 5 -17 2 9 2 25 0 35 -3 9 -5 1 -5 -18z"/>
<path d="M1482 790 c0 -19 2 -27 5 -17 2 9 2 25 0 35 -3 9 -5 1 -5 -18z"/>
<path d="M17132 785 c0 -16 2 -22 5 -12 2 9 2 23 0 30 -3 6 -5 -1 -5 -18z"/>
<path d="M1452 735 c0 -22 3 -62 7 -90 l7 -50 7 69 c4 38 5 71 2 74 -3 3 -6
-3 -6 -14 -1 -10 -5 -3 -9 16 l-7 35 -1 -40z"/>
<path d="M17106 715 c2 -27 4 -66 5 -85 1 -33 2 -33 10 10 11 65 11 99 0 81
-7 -11 -11 -8 -14 15 -2 16 -3 7 -1 -21z"/>
<path d="M72 515 c-17 -37 -14 -45 4 -12 9 16 14 31 11 33 -2 2 -9 -7 -15 -21z"/>
<path d="M6 278 c-10 -39 -7 -278 4 -278 6 0 10 57 10 150 0 83 -2 150 -4 150
-2 0 -6 -10 -10 -22z"/>
<path d="M15605 158 c-33 -77 -61 -145 -63 -149 -2 -5 28 -9 68 -9 l71 0 -2
150 c-2 83 -5 150 -8 150 -3 0 -33 -64 -66 -142z"/>
<path d="M15872 155 c0 -16 2 -22 5 -12 2 9 2 23 0 30 -3 6 -5 -1 -5 -18z"/>
<path d="M15862 95 c0 -16 2 -22 5 -12 2 9 2 23 0 30 -3 6 -5 -1 -5 -18z"/>
<path d="M201 34 c0 -11 3 -14 6 -6 3 7 2 16 -1 19 -3 4 -6 -2 -5 -13z"/>
<path d="M15851 34 c0 -11 3 -14 6 -6 3 7 2 16 -1 19 -3 4 -6 -2 -5 -13z"/>
</g>
</svg>
